<svg width="12" height="24" viewBox="0 0 12 24" fill="none" xmlns="http://www.w3.org/2000/svg">
<path d="M11.9932 10.5846L11.7054 13.0251C11.6567 13.4328 11.3298 13.7395 10.9419 13.7395H7.19838V23.9431C6.80359 23.9807 6.40358 24 5.99923 24C5.09487 24 4.21224 23.9045 3.35919 23.7227V13.7395H0.480008C0.215656 13.7395 0 13.5108 0 13.2308V10.177C0 9.89693 0.215656 9.66831 0.480008 9.66831H3.35919V5.08849C3.35919 2.27798 5.50792 0 8.15926 0H11.5184C11.7828 0 11.9985 0.228624 11.9985 0.508665V3.56249C11.9985 3.84253 11.7828 4.07116 11.5184 4.07116H9.11841C8.05839 4.07116 7.19925 4.98198 7.19925 6.10674V9.66923H11.2306C11.6932 9.66923 12.0506 10.0989 11.9941 10.5856L11.9932 10.5846Z" fill="#383A3D"/>
</svg>
