<svg width="40" height="40" viewBox="0 0 40 40" fill="none" xmlns="http://www.w3.org/2000/svg">
<g clip-path="url(#clip0_4618_532)">
<path d="M26.207 8H13.793C10.5943 8 8 10.5943 8 13.793V26.207C8 29.4057 10.5943 32 13.793 32H26.207C29.4057 32 32 29.4057 32 26.207V13.793C32 10.5943 29.4057 8 26.207 8ZM29.9308 25.7924C29.9308 28.077 28.077 29.9308 25.7924 29.9308H14.2064C11.9219 29.9308 10.068 28.077 10.068 25.7924V14.2064C10.068 11.9219 11.9219 10.068 14.2064 10.068H25.7924C28.077 10.068 29.9308 11.9219 29.9308 14.2064V25.7924Z" fill="#383A3D"/>
<path d="M20.0121 13.793C16.5865 13.793 13.8057 16.5738 13.8057 19.9994C13.8057 23.425 16.5865 26.2058 20.0121 26.2058C23.4377 26.2058 26.2185 23.425 26.2185 19.9994C26.2185 16.5738 23.4377 13.793 20.0121 13.793ZM20.0121 24.1378C17.7322 24.1378 15.8737 22.2793 15.8737 19.9994C15.8737 17.7195 17.7322 15.8611 20.0121 15.8611C22.292 15.8611 24.1504 17.7195 24.1504 19.9994C24.1504 22.2793 22.292 24.1378 20.0121 24.1378Z" fill="#383A3D"/>
<path d="M26.6319 14.6209C27.3174 14.6209 27.8732 14.0652 27.8732 13.3796C27.8732 12.6941 27.3174 12.1384 26.6319 12.1384C25.9464 12.1384 25.3906 12.6941 25.3906 13.3796C25.3906 14.0652 25.9464 14.6209 26.6319 14.6209Z" fill="#383A3D"/>
</g>
<defs>
<clipPath id="clip0_4618_532">
<rect width="24" height="24" fill="white" transform="translate(8 8)"/>
</clipPath>
</defs>
</svg>
