<svg width="20" height="24" viewBox="0 0 20 24" fill="none" xmlns="http://www.w3.org/2000/svg">
<path d="M14.1666 17.3797V7.03533C14.1666 7.03533 15.3411 8.97938 19.5863 9.09812C19.8127 9.10443 20 8.91948 20 8.6946V5.77118C20 5.55366 19.8254 5.38132 19.6064 5.36871C16.3135 5.18376 14.7496 2.67542 14.5962 0.375148C14.5824 0.161828 14.3941 0 14.1793 0H10.8218C10.5986 0 10.4166 0.179693 10.4166 0.402469V16.847C10.4166 18.6334 9.04206 20.1876 7.24536 20.2716C5.19154 20.3683 3.52182 18.6176 3.77577 16.5485C3.95565 15.0868 5.13652 13.8899 6.6052 13.6871C6.89724 13.6472 7.18187 13.644 7.45805 13.6745C7.70247 13.7018 7.91727 13.5211 7.91727 13.2773V10.3465C7.91727 10.1384 7.75749 9.9577 7.54799 9.94509C7.12685 9.91777 6.69514 9.92723 6.25707 9.97662C3.01815 10.3423 0.403525 12.9452 0.0448205 16.1629C-0.428161 20.4072 2.90493 24 7.08347 24C10.9954 24 14.1666 20.8507 14.1666 16.9657" fill="#383A3D"/>
</svg>
