<svg width="16" height="16" viewBox="0 0 16 16" fill="none" xmlns="http://www.w3.org/2000/svg">
<mask id="mask0_5387_1753" style="mask-type:alpha" maskUnits="userSpaceOnUse" x="0" y="0" width="16" height="16">
<rect width="16" height="16" fill="#D9D9D9"/>
</mask>
<g mask="url(#mask0_5387_1753)">
</g>
<g clip-path="url(#clip0_5387_1753)">
<path d="M13.2881 2.6815C11.9431 1.3365 10.0851 0.504501 8.0326 0.504501C3.9281 0.504501 0.600098 3.832 0.600098 7.937C0.600098 9.303 0.968598 10.5825 1.6111 11.6825L1.5921 11.6475L0.537598 15.4985L4.4771 14.465C5.5026 15.0345 6.7261 15.3695 8.0281 15.3695H8.0311C12.1356 15.368 15.4621 12.04 15.4621 7.9355C15.4621 5.884 14.6311 4.027 13.2876 2.682L13.2881 2.6815ZM8.0311 14.114H8.0286C6.8691 14.114 5.7836 13.794 4.8571 13.2375L4.8851 13.253L4.6596 13.1195L2.3221 13.733L2.9456 11.4535L2.7986 11.22C2.2061 10.289 1.8541 9.1545 1.8541 7.9375C1.8541 4.5265 4.6196 1.761 8.0306 1.761C11.4416 1.761 14.2071 4.5265 14.2071 7.9375C14.2071 11.3485 11.4426 14.114 8.0311 14.114ZM11.4191 9.4885C11.2336 9.3955 10.3206 8.947 10.1506 8.8845C9.9801 8.8225 9.8561 8.792 9.7321 8.978C9.6091 9.1635 9.2531 9.5815 9.1446 9.7055C9.0366 9.83 8.9276 9.845 8.7421 9.7525C8.1671 9.5195 7.6731 9.209 7.2436 8.8265L7.2486 8.831C6.8491 8.461 6.5066 8.0375 6.2301 7.5705L6.2161 7.5445C6.1081 7.359 6.2046 7.2585 6.2971 7.166C6.3806 7.083 6.4831 6.949 6.5756 6.841C6.6486 6.7515 6.7111 6.649 6.7586 6.539L6.7616 6.5305C6.7831 6.487 6.7956 6.4365 6.7956 6.3825C6.7956 6.317 6.7771 6.256 6.7451 6.204L6.7461 6.2055C6.6991 6.1125 6.3281 5.1985 6.1736 4.8265C6.0226 4.4645 5.8691 4.514 5.7556 4.508C5.6476 4.503 5.5236 4.502 5.3996 4.502C5.2021 4.507 5.0266 4.596 4.9056 4.7335L4.9051 4.7345C4.5041 5.115 4.2551 5.6515 4.2551 6.246C4.2551 6.259 4.2551 6.2725 4.2556 6.2855V6.2835C4.3211 7.017 4.5961 7.6755 5.0191 8.212L5.0131 8.2045C5.8151 9.394 6.8841 10.3455 8.1386 10.9865L8.1856 11.008C8.4596 11.132 8.8106 11.2645 9.1696 11.378L9.2441 11.3985C9.4651 11.4685 9.7196 11.509 9.9836 11.509C10.1351 11.509 10.2841 11.4955 10.4281 11.47L10.4126 11.472C10.9471 11.3605 11.3906 11.038 11.6611 10.5975L11.6656 10.589C11.7481 10.406 11.7961 10.1925 11.7961 9.968C11.7961 9.8755 11.7881 9.785 11.7726 9.697L11.7741 9.7065C11.7281 9.629 11.6041 9.583 11.4181 9.4895L11.4191 9.4885Z" fill="white"/>
</g>
<defs>
<clipPath id="clip0_5387_1753">
<rect width="16" height="16" fill="white"/>
</clipPath>
</defs>
</svg>
