<svg width="220" height="285" viewBox="0 0 220 285" fill="none" xmlns="http://www.w3.org/2000/svg">
<g opacity="1">
<path d="M37.5797 142.872L158.703 33.1849C164.914 27.9618 180.132 19.6047 191.313 27.9618C202.493 36.3188 195.971 55.8187 191.313 64.524L151.608 134.479C154.604 132.695 164.916 133.006 191.313 142.872C233.24 158.541 237.898 158.541 247.215 179.434C254.013 194.678 234.793 212.514 223.923 221.219L102.8 325.683C96.5882 329.165 83.2337 335.085 79.5068 330.906C74.8482 325.683 60.8725 320.46 79.5068 289.121C94.4142 264.049 116.775 227.598 126.093 212.506C124.45 212.139 122.873 211.579 121.434 210.773L56.2139 189.88C42.2382 184.657 37.5796 184.657 32.9211 174.211C26.9117 160.735 32.9211 148.095 37.5797 142.872Z" fill="#FED7AA"/>
<path opacity="0.6" d="M169.313 13.9519C177.329 11.6883 188.082 11.198 197.576 18.2557C208.051 26.0428 209.038 38.2625 208.035 46.8387C206.998 55.7091 203.562 64.218 200.729 69.4829L200.664 69.6031L200.594 69.7233L168.885 125.286C175.579 126.842 184.07 129.443 194.806 133.434C205.317 137.341 213.89 140.417 220.598 143.022C227.313 145.631 232.963 148.066 237.687 150.902C248.264 157.253 253.023 164.977 258.158 176.429C264.147 189.787 257.945 202.682 251.927 211.075C245.675 219.796 237.163 227.216 231.381 231.837L106.961 338.566L105.982 339.11C102.374 341.121 96.6203 343.896 90.9338 345.616C88.1394 346.461 84.7322 347.247 81.3112 347.287C78.1904 347.323 72.5837 346.746 68.439 342.125C68.4355 342.121 68.4126 342.097 68.3665 342.05C68.3119 341.995 68.2328 341.918 68.1247 341.817C67.8931 341.6 67.6143 341.353 67.2036 340.99C66.459 340.331 65.2795 339.299 64.1016 338.1C61.622 335.575 58.7319 331.91 57.1554 326.636C54.0097 316.11 57.2028 303.342 67.177 286.659C79.3244 266.34 96.2832 238.72 107.503 220.553L49.5708 202.097L49.3194 202.018L49.0704 201.924C45.4635 200.584 43.0492 199.793 40.1053 198.731C37.4948 197.79 34.6886 196.708 32.0639 195.245C25.9145 191.816 22.1109 187.057 19.0128 180.148C10.5309 161.231 19.0024 143.83 25.6302 136.439L26.0267 135.997L150.133 24.2209L150.283 24.0839L150.44 23.954C154.534 20.53 161.375 16.1935 169.313 13.9519Z" stroke="#FDBA74" stroke-width="2.5"/>
<path opacity="0.4" d="M166.514 2.48532C176.797 -0.406334 192.288 -1.48129 206.244 8.8484C222.31 20.743 223.042 38.9457 221.838 49.1972C220.55 60.1582 216.393 70.3036 212.994 76.5935L212.982 76.6146L212.973 76.6358L212.906 76.7565L212.814 76.9225L212.72 77.0855L212.649 77.2093L188.187 119.891C191.935 121.114 195.97 122.52 200.311 124.126C210.82 128.016 219.839 131.241 226.785 133.928C233.751 136.622 240.347 139.407 246.127 142.863C260.108 151.222 266.293 161.765 271.953 174.334C280.897 194.2 271.124 212.329 264.364 221.719C257.062 231.859 247.444 240.166 241.268 245.094L114.519 353.367L113.554 354.188L112.444 354.803L111.446 355.353C107.276 357.666 100.567 360.911 93.6452 362.996C90.2763 364.01 85.5143 365.167 80.3367 365.226C75.9223 365.277 65.8826 364.562 58.0989 356.243C58.0041 356.157 57.8397 356.009 57.4917 355.703C56.7874 355.083 55.251 353.748 53.6923 352.168C50.3019 348.731 45.9479 343.323 43.5728 335.412C38.838 319.636 44.3463 302.778 55.0289 284.985C64.7233 268.838 77.3947 248.196 87.9324 231.137L44.0367 217.212L43.7804 217.134L43.4538 217.031L43.1365 216.91L42.8801 216.817C39.1656 215.443 37.4115 214.893 33.902 213.632C31.1377 212.639 27.4667 211.263 23.8497 209.255C14.6768 204.162 9.20238 196.972 5.24041 188.174C-6.05461 163.088 5.25745 140.325 14.072 130.535L14.4779 130.088L14.9204 129.593L141.908 15.7065L142.06 15.5677L142.292 15.3594L142.533 15.1602L142.695 15.0274C147.91 10.6971 156.399 5.33015 166.514 2.48532Z" stroke="#FEDFB3"/>
</g>
</svg>
