<svg width="112" height="129" viewBox="0 0 112 129" fill="none" xmlns="http://www.w3.org/2000/svg">
<path d="M27.125 49.9651C38.8363 38.8928 35.489 31.9468 43.4988 26.8184C55.834 18.9293 78.8517 25.7181 92.4347 36.5742C109.07 49.8668 117.653 74.1434 107.873 96.1013C97.4599 119.484 70.0662 131.627 45.6236 127.962C23.7946 124.701 2.33667 108.539 0.186664 89.1553C-0.0494159 87.0528 -1.07805 75.6956 6.13924 65.9104C12.1003 57.8149 17.8336 58.7581 27.1166 49.9749" fill="#FEF2F2"/>
<path d="M86.0918 53.3601C86.0918 54.8969 83.9566 56.3071 80.3768 57.419C75.6068 58.9015 68.2746 59.8598 60.0429 59.8598C51.8112 59.8598 44.479 58.9106 39.709 57.419C36.1292 56.3071 33.9941 54.8969 33.9941 53.3601C33.9941 49.7713 45.6511 46.8605 60.0429 46.8605C74.4347 46.8605 86.0827 49.7713 86.0827 53.3601H86.0918Z" fill="#FEF2F2" stroke="#191A1A" stroke-width="0.84" stroke-miterlimit="10"/>
<path d="M54.3908 47.013V59.6958C48.5032 59.3704 43.3607 58.5478 39.7173 57.4178C36.1375 56.3059 34.0024 54.8957 34.0024 53.3589C34.0024 50.2583 42.7247 47.6639 54.3908 47.013Z" fill="#FFC9C9"/>
<path d="M86.091 53.3601V61.4869C86.091 62.3999 85.3369 63.2677 83.9649 64.0632C79.9672 66.3684 70.7633 67.9865 60.0512 67.9865C49.3391 67.9865 40.1262 66.3684 36.1284 64.0632C34.7565 63.2768 34.0024 62.4089 34.0024 61.4869V53.3601C34.0024 54.8969 36.1375 56.3071 39.7173 57.419C44.4873 58.9015 51.8195 59.8597 60.0512 59.8597C68.2829 59.8597 75.606 58.9105 80.3851 57.419C83.9558 56.3071 86.1001 54.8969 86.1001 53.3601H86.091Z" fill="#FFC9C9" stroke="#191A1A" stroke-width="0.84" stroke-miterlimit="10"/>
<path d="M83.9642 64.0623L81.3202 110.861C81.3202 114.45 71.7893 117.361 60.0505 117.361C48.3117 117.361 38.7808 114.45 38.7808 110.861L36.1368 64.0623C40.1345 66.3674 49.3384 67.9855 60.0596 67.9855C70.7808 67.9855 79.9755 66.3674 83.9733 64.0623H83.9642Z" fill="#FFE2E2" stroke="#191A1A" stroke-width="0.84" stroke-miterlimit="10" stroke-linejoin="round"/>
<path d="M50.4 89.8801C50.4 106.771 46.6822 113.718 44.8233 115.08C39.7246 113.445 38.981 112.583 39.2466 112.356C39.7777 112.129 41.7959 110.04 45.62 103.502C49.444 96.9633 50.4 91.6963 50.4 89.8801Z" fill="#C10007"/>
<path d="M83.9649 64.0621L81.3209 110.861C81.3209 114.45 71.79 117.361 60.0512 117.361C48.3124 117.361 38.7815 114.45 38.7815 110.861L36.1375 64.0621C40.1352 66.3672 49.3391 67.9853 60.0603 67.9853C70.7815 67.9853 79.9762 66.3672 83.974 64.0621H83.9649Z" stroke="#191A1A" stroke-width="0.84" stroke-miterlimit="10" stroke-linejoin="round"/>
<path d="M60.0506 75.0824V108.032" stroke="#C10007" stroke-width="0.84" stroke-miterlimit="10" stroke-linecap="round"/>
<path d="M73.1527 75.0989L71.4174 108.013" stroke="#C10007" stroke-width="0.84" stroke-miterlimit="10" stroke-linecap="round"/>
<path d="M69.4366 19.9054C69.4366 19.9054 75.0879 7.66554 83.8465 0.280029" stroke="#191A1A" stroke-width="0.56" stroke-miterlimit="10" stroke-linecap="round"/>
<path d="M73.7353 26.3147C73.7353 26.3147 74.5803 21.9123 80.2225 15.2048" stroke="#191A1A" stroke-width="0.56" stroke-miterlimit="10" stroke-linecap="round"/>
<path d="M59.9971 20.7641C59.9971 20.7641 61.1965 16.6781 64.6309 12.4836" stroke="#191A1A" stroke-width="0.56" stroke-miterlimit="10" stroke-linecap="round"/>
<path d="M86.0917 53.3601C86.0917 54.8969 83.9566 56.3071 80.3768 57.419C75.6068 58.9015 68.2746 59.8598 60.0429 59.8598C51.8112 59.8598 44.479 58.9106 39.709 57.419C36.1292 56.3071 33.9941 54.8969 33.9941 53.3601C33.9941 49.7713 45.6511 46.8605 60.0429 46.8605C74.4347 46.8605 86.0827 49.7713 86.0827 53.3601H86.0917Z" stroke="#191A1A" stroke-width="0.84" stroke-miterlimit="10"/>
<path d="M76.7039 38.8957H72.3973L73.7329 43.063L63.7477 48.3513L62.9118 43.1896L59.2593 44.8258L56.0339 40.2064L49.0833 43.2528L44.1497 37.8471L49.3104 31.9983L48.6381 24.197L55.3343 22.1811L57.7329 24.9473L64.0566 20.9246L70.4439 22.1811L71.2071 28.7892L77.9033 31.3022L76.7039 38.8957Z" fill="#C10007"/>
<path d="M53.4532 32.7271L45.8169 39.515L44.1199 37.818L49.2108 31.8786L48.3623 24.2423L55.1502 22.5453L53.4532 32.7271Z" fill="white"/>
<path d="M76.7039 38.8957H72.3973L73.7329 43.063L63.7477 48.3513L62.9118 43.1896L59.2593 44.8258L56.0339 40.2064L49.0833 43.2528L44.1497 37.8471L49.3104 31.9983L48.6381 24.197L55.3343 22.1811L57.7329 24.9473L64.0566 20.9246L70.4439 22.1811L71.2071 28.7892L77.9033 31.3022L76.7039 38.8957Z" stroke="#191A1A" stroke-width="0.84" stroke-miterlimit="10" stroke-linecap="round" stroke-linejoin="round"/>
<path d="M66.1477 41.7427L62.9132 43.1891" stroke="#191A1A" stroke-width="0.84" stroke-miterlimit="10" stroke-linecap="round" stroke-linejoin="round"/>
<path d="M56.0347 40.2077L54.3902 37.8483" stroke="#191A1A" stroke-width="0.84" stroke-miterlimit="10" stroke-linecap="round" stroke-linejoin="round"/>
<path d="M71.1445 35.0178L72.3892 38.8959H72.3983" fill="#FFC9C9"/>
<path d="M71.1445 35.0178L72.3892 38.8959H72.3983" stroke="#191A1A" stroke-width="0.84" stroke-miterlimit="10" stroke-linecap="round" stroke-linejoin="round"/>
<path d="M61.6578 29.4776L57.7328 24.9487" stroke="#191A1A" stroke-width="0.84" stroke-miterlimit="10" stroke-linecap="round" stroke-linejoin="round"/>
<path d="M49.5199 34.5114L49.3109 31.9984" stroke="#191A1A" stroke-width="0.84" stroke-miterlimit="10" stroke-linecap="round" stroke-linejoin="round"/>
<path d="M72.3987 38.8957H72.389" stroke="#191A1A" stroke-width="0.84" stroke-miterlimit="10" stroke-linecap="round" stroke-linejoin="round"/>
<path d="M40.8631 98.3705C36.2202 109.851 28.4065 117.942 21.9374 118.692C20.6654 118.837 19.4389 118.692 18.3031 118.24C11.4071 115.474 10.3168 102.095 15.8773 88.3635C21.4377 74.623 31.532 65.7278 38.4372 68.494C39.5729 68.946 40.5451 69.6873 41.3628 70.6726C45.515 75.6626 45.5059 86.89 40.8631 98.3796V98.3705Z" fill="#FFC9C9" stroke="#191A1A" stroke-width="0.84" stroke-miterlimit="10"/>
<path d="M47.4232 100.991C41.8627 114.731 31.7685 123.626 24.8633 120.86L18.3034 118.239C19.4391 118.691 20.6657 118.835 21.9377 118.691C28.4068 117.94 36.2205 109.85 40.8633 98.3691C45.5061 86.8886 45.5152 75.6612 41.363 70.6622C40.5453 69.6768 39.5731 68.9356 38.4374 68.4836L44.9973 71.1142C51.8934 73.8803 52.9837 87.2502 47.4232 100.991Z" fill="#FEF2F2" stroke="#191A1A" stroke-width="0.84" stroke-miterlimit="10"/>
<path d="M26.4894 101.434L24.3906 100.457C22.3463 99.5173 21.5559 96.9048 22.6189 94.6358L25.59 88.2808C26.653 86.0118 29.1697 84.9361 31.2049 85.8762L33.3037 86.8525" stroke="#191A1A" stroke-width="0.84" stroke-miterlimit="10"/>
</svg>
