<svg width="112" height="112" viewBox="0 0 112 112" fill="none" xmlns="http://www.w3.org/2000/svg">
<path d="M27.125 29.9645C38.8363 18.8922 35.489 11.9462 43.4988 6.8178C55.834 -1.07133 78.8517 5.71745 92.4347 16.5736C109.07 29.8662 117.653 54.1427 107.873 76.1007C97.4599 99.4831 70.0662 111.626 45.6236 107.962C23.7946 104.7 2.33667 88.5386 0.186664 69.1547C-0.0494159 67.0522 -1.07805 55.695 6.13924 45.9098C12.1003 37.8143 17.8336 38.7575 27.1166 29.9743" fill="#FFEBEE"/>
<path d="M103.952 26.8389C104.062 25.7808 103.369 24.8503 102.456 24.8503H21.8556C21.3995 24.8503 20.9982 25.2517 20.9434 25.799L14.4487 82.8289C14.3757 83.4127 14.7771 83.9235 15.2696 83.9235H96.6549C97.111 83.9235 97.5124 83.5222 97.5671 82.9931L103.952 26.8571" fill="white"/>
<path d="M99.1553 69.439C99.1553 69.439 99.1188 69.439 99.1006 69.439C98.8634 69.4025 98.681 69.1835 98.6992 68.9464L103.497 26.7851C103.534 26.548 103.753 26.3655 103.99 26.3838C104.245 26.4203 104.409 26.6392 104.391 26.8763L99.5931 69.0376C99.5749 69.2748 99.3742 69.439 99.1553 69.439Z" fill="#191A1A"/>
<path d="M58.2342 84.3612H15.2884C14.9418 84.3612 14.6134 84.2152 14.3763 83.9416C14.1026 83.6314 13.9567 83.1936 14.0114 82.7557L20.5061 25.7258C20.5974 24.9596 21.1812 24.394 21.8562 24.394H102.457C102.968 24.394 103.46 24.613 103.825 25.0326C104.263 25.5252 104.464 26.2002 104.391 26.8934C104.354 27.1306 104.135 27.313 103.898 27.2948C103.643 27.2766 103.479 27.0394 103.497 26.8022C103.552 26.3644 103.424 25.9265 103.15 25.6346C102.95 25.4157 102.712 25.3062 102.457 25.3062H21.8562C21.6373 25.3062 21.4183 25.5434 21.4001 25.8535L14.9053 82.9017C14.8871 83.0841 14.9418 83.2665 15.0513 83.376C15.106 83.4307 15.179 83.5037 15.2884 83.5037H58.2342C58.4896 83.5037 58.6903 83.7044 58.6903 83.9598C58.6903 84.2152 58.4896 84.4159 58.2342 84.4159" fill="#191A1A"/>
<path d="M85.3445 69.0021H27.9133L31.1059 41.6183H88.5372L85.3445 69.0021Z" fill="#FFCDD2"/>
<path d="M103.846 74.2175C103.846 60.6139 92.8376 49.5945 79.1987 49.5945C65.5598 49.5945 54.6 60.6139 54.6 74.2175C54.6 87.8212 65.6085 98.8406 79.1987 98.8406C92.7888 98.8406 103.846 87.8212 103.846 74.2175Z" fill="#EF5350"/>
<path d="M92.4801 83.3549L88.3604 87.4745L65.963 65.077L70.0826 60.9574L92.4801 83.3549Z" fill="white"/>
<path d="M65.963 83.3549L70.0826 87.4745L92.4801 65.077L88.3604 60.9574L65.963 83.3549Z" fill="white"/>
<path d="M91.0553 33.4094H27.3664C27.111 33.4094 26.9103 33.2087 26.9103 32.9533C26.9103 32.6979 27.111 32.4972 27.3664 32.4972H91.0553C91.3107 32.4972 91.5114 32.6979 91.5114 32.9533C91.5114 33.2087 91.3107 33.4094 91.0553 33.4094Z" fill="#191A1A"/>
<path d="M33.2209 29.3199C33.1297 29.922 32.4364 30.3963 31.6884 30.3963C30.9404 30.3963 30.3749 29.922 30.4661 29.3199C30.5573 28.7361 31.2506 28.2435 31.9986 28.2435C32.7465 28.2435 33.3121 28.7179 33.2209 29.3199Z" fill="#FFCDD2"/>
<path d="M38.7311 29.3199C38.6399 29.922 37.9466 30.3963 37.1986 30.3963C36.4506 30.3963 35.8851 29.922 35.9763 29.3199C36.0675 28.7361 36.7608 28.2435 37.5087 28.2435C38.2567 28.2435 38.8223 28.7179 38.7311 29.3199Z" fill="#FFCDD2"/>
<path d="M44.2436 29.3199C44.1524 29.922 43.4591 30.3963 42.7111 30.3963C41.9631 30.3963 41.3976 29.922 41.4888 29.3199C41.58 28.7361 42.2733 28.2435 43.0213 28.2435C43.7693 28.2435 44.3348 28.7179 44.2436 29.3199Z" fill="#FFCDD2"/>
<path d="M91.6576 29.7559H83.8858C83.6304 29.7559 83.4297 29.5553 83.4297 29.3181C83.4297 29.0809 83.6304 28.862 83.8858 28.862H91.6576C91.913 28.862 92.1137 29.0627 92.1137 29.3181C92.1137 29.5735 91.913 29.7559 91.6576 29.7559Z" fill="#191A1A"/>
<path d="M80.401 29.7559H62.8688C62.6134 29.7559 62.4127 29.5553 62.4127 29.3181C62.4127 29.0809 62.6134 28.862 62.8688 28.862H80.401C80.6564 28.862 80.8571 29.0627 80.8571 29.3181C80.8571 29.5735 80.6564 29.7559 80.401 29.7559Z" fill="#191A1A"/>
<path d="M54.4027 29.7559H47.5613C47.3058 29.7559 47.1052 29.5553 47.1052 29.3181C47.1052 29.0809 47.3058 28.862 47.5613 28.862H54.4027C54.6581 28.862 54.8587 29.0627 54.8587 29.3181C54.8587 29.5735 54.6581 29.7559 54.4027 29.7559Z" fill="#191A1A"/>
</svg>
