<svg width="40" height="40" viewBox="0 0 40 40" fill="none" xmlns="http://www.w3.org/2000/svg">
<path d="M0 20C0 8.95431 8.95431 0 20 0C31.0457 0 40 8.95431 40 20C40 31.0457 31.0457 40 20 40C8.95431 40 0 31.0457 0 20Z" fill="#FEF2E6"/>
<mask id="mask0_4618_622" style="mask-type:alpha" maskUnits="userSpaceOnUse" x="10" y="10" width="20" height="20">
<rect x="10" y="10" width="20" height="20" fill="#D9D9D9"/>
</mask>
<g mask="url(#mask0_4618_622)">
<path d="M20.0001 24.1667C20.2362 24.1667 20.4341 24.0868 20.5938 23.9271C20.7536 23.7674 20.8334 23.5694 20.8334 23.3333V20C20.8334 19.7639 20.7536 19.566 20.5938 19.4062C20.4341 19.2465 20.2362 19.1667 20.0001 19.1667C19.764 19.1667 19.5661 19.2465 19.4063 19.4062C19.2466 19.566 19.1667 19.7639 19.1667 20V23.3333C19.1667 23.5694 19.2466 23.7674 19.4063 23.9271C19.5661 24.0868 19.764 24.1667 20.0001 24.1667ZM20.0001 17.5C20.2362 17.5 20.4341 17.4201 20.5938 17.2604C20.7536 17.1007 20.8334 16.9028 20.8334 16.6667C20.8334 16.4306 20.7536 16.2326 20.5938 16.0729C20.4341 15.9132 20.2362 15.8333 20.0001 15.8333C19.764 15.8333 19.5661 15.9132 19.4063 16.0729C19.2466 16.2326 19.1667 16.4306 19.1667 16.6667C19.1667 16.9028 19.2466 17.1007 19.4063 17.2604C19.5661 17.4201 19.764 17.5 20.0001 17.5ZM20.0001 28.3333C18.8473 28.3333 17.764 28.1146 16.7501 27.6771C15.7362 27.2396 14.8542 26.6458 14.1042 25.8958C13.3542 25.1458 12.7605 24.2639 12.323 23.25C11.8855 22.2361 11.6667 21.1528 11.6667 20C11.6667 18.8472 11.8855 17.7639 12.323 16.75C12.7605 15.7361 13.3542 14.8542 14.1042 14.1042C14.8542 13.3542 15.7362 12.7604 16.7501 12.3229C17.764 11.8854 18.8473 11.6667 20.0001 11.6667C21.1529 11.6667 22.2362 11.8854 23.2501 12.3229C24.264 12.7604 25.1459 13.3542 25.8959 14.1042C26.6459 14.8542 27.2397 15.7361 27.6772 16.75C28.1147 17.7639 28.3334 18.8472 28.3334 20C28.3334 21.1528 28.1147 22.2361 27.6772 23.25C27.2397 24.2639 26.6459 25.1458 25.8959 25.8958C25.1459 26.6458 24.264 27.2396 23.2501 27.6771C22.2362 28.1146 21.1529 28.3333 20.0001 28.3333ZM20.0001 26.6667C21.8612 26.6667 23.4376 26.0208 24.7292 24.7292C26.0209 23.4375 26.6667 21.8611 26.6667 20C26.6667 18.1389 26.0209 16.5625 24.7292 15.2708C23.4376 13.9792 21.8612 13.3333 20.0001 13.3333C18.139 13.3333 16.5626 13.9792 15.2709 15.2708C13.9792 16.5625 13.3334 18.1389 13.3334 20C13.3334 21.8611 13.9792 23.4375 15.2709 24.7292C16.5626 26.0208 18.139 26.6667 20.0001 26.6667Z" fill="#BF3703"/>
</g>
</svg>
