<svg width="1186" height="122" viewBox="0 0 1186 122" fill="none" xmlns="http://www.w3.org/2000/svg">
<g clip-path="url(#clip0_7572_3617)">
<path d="M0 10C0 4.47716 4.47715 0 10 0H1176C1181.52 0 1186 4.47715 1186 10V112C1186 117.523 1181.52 122 1176 122H9.99996C4.47712 122 0 117.523 0 112V10Z" fill="url(#paint0_linear_7572_3617)"/>
<ellipse opacity="0.22" cx="9.15527e-05" cy="216.435" rx="143.936" ry="143.935" fill="#ECBD84"/>
<ellipse opacity="0.22" cx="764.254" cy="0.254997" rx="121.254" ry="121.255" fill="#ECBD84"/>
<path d="M30 45C30 40.3056 33.8056 36.5 38.5 36.5H158.5C163.194 36.5 167 40.3056 167 45C167 49.6944 163.194 53.5 158.5 53.5H38.5C33.8056 53.5 30 49.6944 30 45Z" fill="white" fill-opacity="0.3"/>
<path d="M480 40.5C480 37.1863 482.686 34.5 486 34.5H904C907.314 34.5 910 37.1863 910 40.5V81.5C910 84.8137 907.314 87.5 904 87.5H486C482.686 87.5 480 84.8137 480 81.5V40.5Z" fill="white" fill-opacity="0.2"/>
<path d="M1079 27.9779C1067.76 27.8118 1061.55 28.31 1052.56 33.0982C1046.36 36.4196 1044.29 42.8685 1042.98 46.1344C1045.73 50.4521 1058.77 71.9577 1050.82 93.4079C1049.7 96.4525 1047.99 99.9122 1045.35 103.483C1047.61 104.534 1051.01 105.78 1055.18 105.946C1062.17 106.223 1066.12 103.344 1070.1 102.099C1085.1 97.4212 1097.82 116.962 1105.6 112.644C1111.08 109.599 1109.47 97.3381 1107.05 78.7664C1103.07 48.321 1094.11 38.6061 1091.2 35.7276C1086.08 30.6626 1080.39 27.9779 1078.95 27.9502" fill="#40403F"/>
<path d="M990.32 26.3729C990.157 26.0131 989.857 25.7087 989.503 25.5149C988.114 24.7123 984.956 22.7748 984.52 21.5847C984.03 20.2838 988.223 18.291 992.852 20.1731C994.105 20.6713 995.275 21.5293 995.82 22.6088C995.956 22.8855 995.902 22.8025 996.119 23.1623C997.535 25.5979 998.189 27.6738 998.515 29.5282C998.706 30.6353 999.959 32.7388 999.986 33.7075C1000.04 37.3333 996.201 39.7689 993.968 33.3754C993.642 32.4067 992.444 29.6112 991.872 28.8086C991.3 28.0059 990.674 27.0372 990.347 26.3453" fill="white"/>
<path d="M997.426 37.805C996.501 37.805 994.812 37.2238 993.56 33.5703C993.233 32.6293 992.062 29.8615 991.518 29.0865C990.837 28.1455 990.265 27.2044 989.939 26.5402C989.802 26.2634 989.585 26.042 989.312 25.8759C987.189 24.6304 984.575 22.9144 984.139 21.7519C984.03 21.5028 983.976 20.977 984.575 20.3681C985.718 19.2333 989.203 18.2646 993.015 19.8145C994.486 20.4234 995.629 21.3645 996.201 22.4439C996.255 22.5546 996.283 22.6376 996.31 22.693C996.337 22.7483 996.364 22.8037 996.473 22.9974C997.753 25.2116 998.543 27.3428 998.897 29.5017C998.978 29.9722 999.278 30.6641 999.577 31.3561C999.986 32.2695 1000.37 33.1275 1000.37 33.764C1000.37 35.7845 999.278 37.5005 997.807 37.7773C997.699 37.7773 997.562 37.805 997.426 37.805ZM988.986 19.8422C987.107 19.8422 985.664 20.4234 985.119 20.977C985.038 21.06 984.82 21.2814 984.901 21.4752C985.174 22.1948 986.998 23.6063 989.721 25.184C990.156 25.4331 990.483 25.7929 990.701 26.2357C991.028 26.9553 991.681 27.9517 992.198 28.6437C992.825 29.5294 994.023 32.3525 994.349 33.3212C995.221 35.8399 996.473 37.1961 997.671 36.9747C998.733 36.7809 999.577 35.397 999.55 33.7917C999.55 33.3489 999.169 32.4909 998.842 31.7159C998.515 30.9409 998.189 30.2213 998.107 29.6678C997.753 27.5919 996.991 25.5438 995.765 23.4403C995.629 23.2188 995.602 23.1358 995.548 23.0528C995.548 22.9974 995.52 22.9698 995.466 22.859C995.003 21.9457 993.996 21.143 992.716 20.6171C991.382 20.0636 990.129 19.8699 989.013 19.8699L988.986 19.8422Z" fill="#40403F"/>
<path d="M1008.54 25.4867L1007.09 31.7695L1004.12 30.8838C1003.96 30.8285 1003.8 30.7454 1003.69 30.6347L1003.47 30.4133C1003.2 30.1365 1002.79 30.0535 1002.41 30.1642C1002.22 30.2196 1002 30.2196 1001.78 30.1642L979.728 23.6876C979.537 23.6323 979.374 23.5492 979.211 23.4662L974.228 20.4217L979.782 20.0342C980.082 20.0342 980.381 20.0342 980.681 20.0895L1003.14 24.4626C1003.33 24.4903 1003.53 24.601 1003.66 24.7117H1003.69C1003.96 24.9885 1004.37 25.0715 1004.72 24.9885L1004.91 24.9331C1005.08 24.8778 1005.24 24.8778 1005.43 24.9331L1008.51 25.542" fill="white"/>
<path d="M1007.12 32.1858C1007.12 32.1858 1007.04 32.1858 1007.01 32.1858L1004.04 31.3001C1003.83 31.2447 1003.61 31.1064 1003.44 30.9403L1003.23 30.7189C1003.06 30.5528 1002.79 30.4974 1002.57 30.5528C1002.3 30.6358 1002 30.6358 1001.73 30.5528L979.675 24.0762C979.457 24.0209 979.239 23.9102 979.048 23.7994L974.066 20.7549C973.902 20.6719 973.848 20.4781 973.875 20.3121C973.93 20.146 974.066 20.0076 974.256 20.0076L979.811 19.6201C980.138 19.6201 980.492 19.6201 980.818 19.6755L1003.28 24.0485C1003.55 24.1039 1003.8 24.2146 1003.99 24.4084H1004.02C1004.18 24.6021 1004.42 24.6574 1004.64 24.5744L1004.83 24.5191C1005.05 24.436 1005.3 24.436 1005.54 24.4914L1008.62 25.1003C1008.62 25.1003 1008.84 25.1833 1008.89 25.294C1008.94 25.3771 1008.97 25.5155 1008.94 25.6262L1007.5 31.909C1007.5 31.909 1007.42 32.1304 1007.31 32.1858C1007.26 32.2135 1007.17 32.2411 1007.09 32.2411M1002.74 29.7778C1003.12 29.7778 1003.47 29.9162 1003.74 30.193L1003.96 30.4144C1003.96 30.4144 1004.13 30.5528 1004.23 30.5805L1006.79 31.3278L1008.02 25.903L1005.35 25.3771C1005.35 25.3771 1005.13 25.3771 1005.05 25.3771L1004.86 25.4324C1004.37 25.5708 1003.83 25.4601 1003.44 25.1003H1003.42C1003.42 25.1003 1003.23 24.9342 1003.09 24.9066L980.628 20.5335C980.355 20.4781 980.083 20.4781 979.838 20.4781L975.59 20.7826L979.457 23.1629C979.457 23.1629 979.729 23.3012 979.865 23.3566L1001.92 29.8332C1001.92 29.8332 1002.16 29.8609 1002.3 29.8332C1002.44 29.7778 1002.6 29.7778 1002.74 29.7778Z" fill="#40403F"/>
<path d="M979.536 23.992C979.536 23.992 979.482 23.992 979.454 23.992C979.237 23.9367 979.073 23.7429 979.128 23.4939L979.591 20.9752C979.645 20.7538 979.836 20.5877 980.081 20.6431C980.299 20.6984 980.462 20.8922 980.407 21.1413L979.945 23.6599C979.917 23.8537 979.727 23.992 979.536 23.992Z" fill="#40403F"/>
<path d="M1012.21 33.1251L1007.36 31.852C1007.17 31.7966 1007.04 31.6029 1007.09 31.3814L1008.43 25.8182C1008.48 25.5968 1008.7 25.4861 1008.89 25.5415L1013.73 26.8146C1014.69 27.0637 1015.29 28.0324 1015.04 28.9735L1014.33 31.8796C1014.12 32.8207 1013.14 33.4019 1012.18 33.1528" fill="#40403F"/>
<path d="M1012.65 33.5967C1012.45 33.5967 1012.26 33.5967 1012.07 33.5136L1007.23 32.2404C1006.82 32.1297 1006.55 31.6869 1006.65 31.2717L1007.99 25.7085C1008.04 25.4871 1008.18 25.321 1008.34 25.2103C1008.53 25.0996 1008.75 25.0719 1008.94 25.1273L1013.79 26.4005C1014.96 26.7049 1015.69 27.8951 1015.4 29.0852L1014.69 31.9913C1014.55 32.5449 1014.2 33.0154 1013.71 33.3199C1013.35 33.5136 1012.97 33.6243 1012.59 33.6243M1007.42 31.4931L1012.24 32.7386C1012.59 32.8217 1012.97 32.7663 1013.3 32.6003C1013.6 32.4065 1013.82 32.1297 1013.9 31.7976L1014.61 28.8915C1014.77 28.1718 1014.33 27.4245 1013.57 27.2308L1008.75 25.9853L1007.42 31.4931Z" fill="#40403F"/>
<path d="M1006.03 30.5806C1006.03 30.5806 1005.95 30.5806 1005.92 30.5806C1005.7 30.5253 1005.57 30.3038 1005.62 30.0824L1006.55 26.429C1006.6 26.2075 1006.82 26.0692 1007.04 26.1245C1007.26 26.1799 1007.39 26.4013 1007.34 26.6227L1006.41 30.2762C1006.36 30.4699 1006.19 30.5806 1006 30.5806" fill="#40403F"/>
<path d="M1003.23 29.4463C1003.23 29.4463 1003.17 29.4463 1003.12 29.4463C1002.9 29.3909 1002.76 29.1695 1002.82 28.9481L1003.58 25.9866C1003.63 25.7652 1003.85 25.6268 1004.07 25.6821C1004.29 25.7375 1004.42 25.9589 1004.37 26.1803L1003.61 29.1418C1003.55 29.3356 1003.39 29.4463 1003.2 29.4463" fill="#40403F"/>
<path d="M1001.05 28.8646C1001.05 28.8646 1000.97 28.8646 1000.94 28.8646L994.404 27.0379C994.186 26.9825 994.05 26.7334 994.104 26.512C994.159 26.2906 994.404 26.1522 994.621 26.2075L1001.16 28.0342C1001.37 28.0896 1001.51 28.3387 1001.46 28.5601C1001.4 28.7539 1001.24 28.8646 1001.05 28.8646Z" fill="#40403F"/>
<path d="M984.82 24.4073C984.82 24.4073 984.738 24.4073 984.711 24.4073L980.763 23.3279C980.545 23.2725 980.409 23.0511 980.464 22.802C980.518 22.5806 980.763 22.4422 980.981 22.4976L984.929 23.577C985.147 23.6324 985.283 23.8538 985.229 24.1029C985.174 24.2966 985.011 24.4073 984.82 24.4073Z" fill="#40403F"/>
<path d="M1013.6 28.9462C1013.6 28.9462 1013.52 28.9462 1013.49 28.9462L1009.52 27.8945C1009.3 27.8391 1009.16 27.6177 1009.22 27.3963C1009.27 27.1748 1009.49 27.0364 1009.73 27.0918L1013.71 28.1436C1013.93 28.1989 1014.06 28.4203 1014.01 28.6418C1013.95 28.8355 1013.79 28.9462 1013.6 28.9462Z" fill="white"/>
<path d="M994.731 28.4207C994.377 28.0056 994.268 27.6181 994.077 27.1476C993.75 26.3726 993.233 25.7083 992.58 25.1824C992.035 24.7673 991.463 24.3521 991.245 24.2414C990.156 23.5218 989.448 23.328 988.686 23.3834C987.951 23.4664 986.399 23.328 987.079 24.5182C987.079 24.5182 987.079 24.8226 988.795 25.4315C988.795 25.4315 989.285 25.4592 990.129 27.286C990.592 28.3377 991.218 29.1957 991.654 29.7216C991.872 29.9707 992.144 30.1921 992.443 30.2751C993.886 30.718 994.948 28.5314 994.976 28.5314L994.731 28.4207Z" fill="white"/>
<path d="M992.743 30.9129C992.743 30.9129 992.634 30.9129 992.607 30.8852C992.553 30.8852 991.518 30.4701 991.055 29.9996C990.538 29.446 989.912 28.505 989.449 27.4532C988.877 26.2354 988.469 25.8479 988.469 25.8479C988.441 25.8479 988.387 25.8479 988.36 25.8479C987.434 25.5158 986.917 25.156 986.671 24.8792C986.426 24.6301 986.263 24.3256 986.236 24.0212C986.209 23.7721 986.263 23.523 986.454 23.3569C986.944 22.831 988.196 22.8587 988.441 22.8864C989.476 22.9418 990.075 23.1632 991.191 23.9381C991.545 24.1872 992.063 24.5471 992.553 24.9069C993.288 25.4604 993.832 26.2077 994.186 27.0381C994.323 27.3702 994.431 27.5086 995.112 27.813C995.33 27.8961 995.412 28.1452 995.33 28.3666C995.248 28.588 995.003 28.671 994.785 28.588C993.969 28.2282 993.669 27.9514 993.424 27.3702C993.125 26.6782 992.662 26.0417 992.063 25.5711C991.6 25.2113 991.11 24.8792 990.756 24.6301C989.748 23.9381 989.285 23.7721 988.414 23.7167C987.842 23.6891 987.189 23.7998 987.08 23.9381C987.08 24.0765 987.189 24.2149 987.298 24.3256C987.488 24.5194 987.897 24.8238 988.659 25.0729C988.959 25.156 989.503 25.5435 990.266 27.1488C990.701 28.1175 991.246 28.9755 991.709 29.4737C991.926 29.6951 992.58 30.0272 992.961 30.1656C993.179 30.2487 993.288 30.4978 993.206 30.6915C993.152 30.8576 992.988 30.9683 992.825 30.9683" fill="#40403F"/>
<path d="M1052.59 33.0967C1052.59 33.0967 1038.38 44.4445 1023.1 46.9078C1007.83 49.3712 1000.8 33.0967 1000.8 33.0967L993.233 34.3145C993.233 34.3145 998.026 70.2678 1017.93 71.3749C1037.83 72.4543 1058.47 59.9717 1058.47 59.9717L1052.56 33.0967" fill="#40403F"/>
<path d="M1074.83 59.4185H1142.99C1145.46 59.4185 1147.78 61.4666 1148.13 63.9576L1155.54 115.078C1155.89 117.597 1154.18 119.645 1151.7 119.645H1083.55C1081.07 119.645 1078.76 117.597 1078.4 115.078L1071 63.9576C1070.64 61.4389 1072.36 59.4185 1074.83 59.4185Z" fill="white"/>
<path d="M1151.7 120.089H1083.55C1080.88 120.089 1078.37 117.874 1077.99 115.19L1070.59 64.0691C1070.4 62.7129 1070.72 61.4397 1071.54 60.4987C1072.36 59.5576 1073.5 59.0317 1074.84 59.0317H1142.99C1145.66 59.0317 1148.16 61.246 1148.54 63.9307L1155.95 115.051C1156.14 116.408 1155.81 117.653 1154.99 118.622C1154.18 119.563 1153.03 120.089 1151.7 120.089ZM1074.84 59.8621C1073.77 59.8621 1072.82 60.2772 1072.17 61.0245C1071.51 61.7995 1071.24 62.8236 1071.4 63.9307L1078.81 115.051C1079.14 117.376 1081.26 119.258 1083.55 119.258H1151.7C1152.76 119.258 1153.71 118.843 1154.37 118.096C1155.02 117.321 1155.29 116.297 1155.13 115.19L1147.72 64.0691C1147.4 61.7441 1145.27 59.8621 1142.99 59.8621H1074.84Z" fill="#40403F"/>
<path d="M1145 67.3069H1075C1074.78 67.3069 1074.59 67.1131 1074.59 66.8917C1074.59 66.6703 1074.78 66.4766 1075 66.4766H1145C1145.22 66.4766 1145.41 66.6703 1145.41 66.8917C1145.41 67.1131 1145.22 67.3069 1145 67.3069Z" fill="#40403F"/>
<path d="M1139.96 62.9349C1140.05 63.5715 1140.65 64.0974 1141.3 64.0974C1141.95 64.0974 1142.39 63.5715 1142.28 62.9349C1142.2 62.2983 1141.6 61.7725 1140.94 61.7725C1140.29 61.7725 1139.86 62.2983 1139.96 62.9349Z" fill="#40403F"/>
<path d="M1135.36 62.9349C1135.44 63.5715 1136.04 64.0974 1136.7 64.0974C1137.35 64.0974 1137.79 63.5715 1137.68 62.9349C1137.6 62.2983 1137 61.7725 1136.34 61.7725C1135.69 61.7725 1135.25 62.2983 1135.36 62.9349Z" fill="#40403F"/>
<path d="M1130.76 62.9349C1130.84 63.5715 1131.44 64.0974 1132.1 64.0974C1132.75 64.0974 1133.18 63.5715 1133.08 62.9349C1132.99 62.2983 1132.4 61.7725 1131.74 61.7725C1131.09 61.7725 1130.65 62.2983 1130.76 62.9349Z" fill="#40403F"/>
<path d="M1080.85 63.3499H1074.35C1074.13 63.3499 1073.94 63.1561 1073.94 62.9347C1073.94 62.7133 1074.13 62.5195 1074.35 62.5195H1080.85C1081.07 62.5195 1081.26 62.7133 1081.26 62.9347C1081.26 63.1561 1081.07 63.3499 1080.85 63.3499Z" fill="#40403F"/>
<path d="M1115.19 63.3499H1083.77C1083.55 63.3499 1083.36 63.1561 1083.36 62.9347C1083.36 62.7133 1083.55 62.5195 1083.77 62.5195H1115.19C1115.41 62.5195 1115.6 62.7133 1115.6 62.9347C1115.6 63.1561 1115.41 63.3499 1115.19 63.3499Z" fill="#40403F"/>
<path d="M1127.98 63.3499H1122.27C1122.05 63.3499 1121.86 63.1561 1121.86 62.9347C1121.86 62.7133 1122.05 62.5195 1122.27 62.5195H1127.98C1128.2 62.5195 1128.39 62.7133 1128.39 62.9347C1128.39 63.1561 1128.2 63.3499 1127.98 63.3499Z" fill="#40403F"/>
<path d="M1084.45 111.091H1149.22L1143.48 71.3462H1078.7L1084.45 111.091Z" fill="#F2D020"/>
<path d="M1141.95 110.153C1141.95 110.153 1151.46 89.505 1142.01 67.5566C1133.76 48.3483 1109.09 27.4516 1076.14 27.9775L1086.33 55.3507C1086.33 55.3507 1138.06 64.429 1127.6 110.153H1141.95Z" fill="#40403F"/>
<path d="M1129.92 110.153L1119.41 112.81C1119.41 112.81 1120.06 115.246 1124.66 114.803C1129.26 114.36 1128.17 118.567 1123.14 119.453C1118.1 120.339 1120.96 121.888 1127.96 121.446C1134.98 121.003 1138.93 114.554 1140.24 110.125H1129.94" fill="white"/>
<path d="M1125.62 121.972C1123.36 121.972 1120.28 121.751 1120.14 120.616C1120.06 119.924 1120.96 119.426 1123.03 119.066C1125.86 118.568 1127.25 116.99 1127.14 116.104C1127.06 115.44 1126.11 115.108 1124.69 115.246C1119.79 115.717 1119.03 113.06 1119 112.949C1118.97 112.838 1119 112.728 1119.05 112.617C1119.11 112.534 1119.19 112.451 1119.3 112.423L1129.81 109.766C1129.81 109.766 1129.86 109.766 1129.92 109.766H1140.21C1140.21 109.766 1140.45 109.821 1140.54 109.932C1140.62 110.043 1140.65 110.181 1140.59 110.292C1139.09 115.385 1134.87 121.474 1127.96 121.917C1127.68 121.917 1126.76 122 1125.62 122M1121.04 120.56C1121.5 120.865 1123.57 121.363 1127.9 121.086C1134.17 120.699 1138.09 115.302 1139.64 110.596H1129.94L1119.98 113.115C1120.39 113.696 1121.53 114.72 1124.61 114.416C1127.49 114.139 1127.9 115.551 1127.96 115.994C1128.15 117.461 1126.41 119.315 1123.19 119.896C1121.75 120.145 1121.23 120.422 1121.04 120.533V120.56Z" fill="#40403F"/>
<path d="M1058.01 29.6112L1056.1 23.356C1055.69 23.4114 1055.39 23.4667 1055.31 23.4944C1052.92 24.0203 1051.96 23.4114 1051.31 21.5016C1050.9 20.2838 1050.44 18.4571 1050.49 16.0214C1050.49 15.7723 1050.44 15.4956 1050.27 15.3018L1049.65 14.4438C1049.48 14.1394 1049.51 13.7795 1049.73 13.5028L1049.89 13.2814C1050.52 12.451 1050.98 11.51 1051.31 10.5136C1051.61 9.60022 1052.07 7.8842 1052.56 7.46904C1053.95 6.33425 1059.56 1.49067 1064.46 6.52801C1068.27 10.4582 1065.2 17.8482 1064.02 20.3115C1063.83 20.699 1065.63 23.9649 1066.97 26.3452C1067.81 27.8675 1069.42 28.7809 1071.13 28.8085H1073.25C1073.25 28.8085 1071.46 35.5342 1061.6 36.1985C1057.41 36.4752 1056.7 35.7833 1056.7 35.7833L1057.6 34.0119C1058.31 32.6557 1058.44 31.1058 1058.01 29.6389" fill="white"/>
<path d="M1059.75 36.6402C1057.17 36.6402 1056.54 36.1697 1056.4 36.0313C1056.27 35.8929 1056.24 35.6991 1056.32 35.5331L1057.22 33.7617C1057.87 32.5162 1058.01 31.077 1057.6 29.7208L1055.8 23.8254C1055.53 23.8808 1055.42 23.8808 1055.4 23.9084C1052.89 24.462 1051.67 23.8531 1050.9 21.6389C1050.28 19.8398 1050 17.9854 1050.06 15.9926C1050.06 15.8266 1050 15.6605 1049.92 15.5221L1049.3 14.6641C1049.3 14.6641 1049.3 14.6364 1049.27 14.6087C1049.02 14.1659 1049.08 13.6123 1049.38 13.2249L1049.54 13.0034C1050.11 12.2561 1050.58 11.3428 1050.88 10.3464C1050.9 10.208 1050.96 10.0696 1051.01 9.93122C1051.42 8.57501 1051.77 7.49558 1052.26 7.10809L1052.4 6.99738C1057.25 3.06715 1061.36 2.79037 1064.68 6.22241C1068.55 10.208 1065.77 17.4042 1064.35 20.3934C1064.41 20.6148 1064.73 21.6389 1067.24 26.095C1068.03 27.4789 1069.47 28.3369 1071.05 28.3369H1073.18C1073.18 28.3369 1073.42 28.3922 1073.5 28.5029C1073.58 28.6136 1073.61 28.752 1073.58 28.8627C1073.58 28.9458 1071.57 35.8652 1061.55 36.5571C1060.84 36.6125 1060.21 36.6402 1059.67 36.6402M1057.19 35.5331C1057.68 35.6991 1058.88 35.8929 1061.49 35.7268C1069.34 35.1733 1071.92 30.7171 1072.6 29.1672H1071.05C1069.2 29.1672 1067.46 28.1431 1066.53 26.5101C1063.26 20.7255 1063.43 20.3657 1063.56 20.0889C1064.9 17.2935 1067.62 10.4294 1064.08 6.77595C1059.59 2.15378 1054.55 6.27776 1052.89 7.60629L1052.73 7.71699C1052.4 7.99377 1051.96 9.37766 1051.75 10.125C1051.69 10.291 1051.67 10.4294 1051.61 10.5401C1051.26 11.6195 1050.77 12.616 1050.14 13.4463L1049.98 13.6677C1049.98 13.6677 1049.87 13.9722 1049.92 14.1382L1050.52 14.9686C1050.71 15.2453 1050.82 15.6051 1050.82 15.965C1050.77 17.847 1051.01 19.5907 1051.61 21.3067C1052.16 22.912 1052.81 23.5486 1055.15 23.0504C1055.2 23.0504 1055.34 23.0228 1055.97 22.912C1056.18 22.8844 1056.38 22.9951 1056.43 23.1888L1058.34 29.444C1058.8 31.0216 1058.66 32.6823 1057.9 34.1215L1057.19 35.4777V35.5331Z" fill="#40403F"/>
<path d="M1060.78 -0.557417C1058.99 -0.52974 1057.05 0.217556 1056.16 0.079168C1054.69 -0.114576 1054.28 -1.74756 1052.32 -1.74756C1049.92 -1.74756 1049.21 -0.585091 1048.64 0.992537C1048.56 1.24164 1048.48 1.54608 1048.42 1.85054C1047.88 6.02987 1050.11 7.49679 1051.04 7.93963C1051.04 7.93963 1056.73 9.40655 1057.76 9.9601C1058.74 10.486 1060.08 11.9529 1060.02 14.4992C1060.02 14.8314 1060.21 15.1082 1060.51 15.2189C1060.87 15.3296 1061.25 15.1635 1061.38 14.8037C1061.82 13.6689 1062.83 11.4547 1063.97 11.6761C1065.39 11.9252 1065.88 15.9385 1063.13 17.0733C1062.28 17.4054 1061.79 18.4848 1062.09 19.3982C1062.28 19.9794 1063.02 20.5883 1063.89 20.5883C1064.43 20.5883 1064.9 20.2562 1065.28 19.8687C1066.86 18.2357 1070.94 11.8975 1070.53 7.19233C1070.07 1.51841 1063.15 -0.557416 1060.76 -0.502061" fill="#40403F"/>
<path d="M1055.45 23.798C1055.29 23.798 1055.12 23.6873 1055.07 23.5212C1055.01 23.3275 1055.12 23.1061 1055.34 23.0507C1055.34 23.0507 1057.19 22.5248 1058.23 21.141C1058.36 20.9749 1058.58 20.9195 1058.77 21.0579C1058.93 21.1963 1058.99 21.4177 1058.85 21.6115C1057.68 23.2168 1055.64 23.798 1055.56 23.8257C1055.53 23.8257 1055.5 23.8257 1055.45 23.8257" fill="#40403F"/>
<path d="M986.562 104.534H1061C1062.2 104.534 1063.18 103.537 1063.18 102.319V100.244H984.356V102.319C984.356 103.537 985.337 104.534 986.535 104.534" fill="white"/>
<path d="M1061.03 104.949H986.59C985.147 104.949 983.976 103.759 983.976 102.32V100.244C983.976 100.022 984.167 99.8286 984.385 99.8286H1063.21C1063.43 99.8286 1063.62 100.022 1063.62 100.244V102.32C1063.62 103.759 1062.45 104.949 1061 104.949M984.766 100.659V102.32C984.766 103.316 985.556 104.119 986.536 104.119H1060.98C1061.96 104.119 1062.75 103.316 1062.75 102.32V100.659H984.739H984.766Z" fill="#40403F"/>
<path d="M984.384 100.243H1029.5L1015.18 57.6193C1014.33 56.2908 1012.84 55.4604 1011.23 55.4604H973.112C971.369 55.4604 970.28 57.1488 970.824 58.6711C971.042 59.28 971.287 59.8612 971.478 60.4701L984.411 100.271" fill="white"/>
<path d="M1029.47 100.659H984.356C984.166 100.659 984.029 100.548 983.975 100.382L971.042 60.5818C970.906 60.1666 970.742 59.7238 970.579 59.3086C970.524 59.1425 970.443 58.9765 970.388 58.8104C970.061 57.9801 970.198 57.039 970.715 56.2641C971.259 55.4891 972.104 55.0186 973.057 55.0186H1011.18C1012.92 55.0186 1014.55 55.9042 1015.48 57.3435C1015.48 57.3712 1015.5 57.3988 1015.53 57.4265L1029.85 100.05C1029.85 100.05 1029.85 100.327 1029.8 100.438C1029.72 100.548 1029.61 100.604 1029.47 100.604M984.656 99.7734H1028.87L1014.74 57.731C1013.95 56.5408 1012.62 55.8212 1011.15 55.8212H973.029C972.349 55.8212 971.722 56.1533 971.368 56.7069C971.014 57.2328 970.933 57.897 971.151 58.4783C971.205 58.6443 971.287 58.8104 971.341 58.9765C971.505 59.3916 971.668 59.8345 971.831 60.2773L984.656 99.7734Z" fill="#40403F"/>
<path d="M1001.1 77.3287C1001.65 79.1278 1000.83 80.9822 999.278 81.4527C997.726 81.9232 996.038 80.8438 995.494 79.0447C994.949 77.2457 995.766 75.3913 997.318 74.9208C998.87 74.4503 1000.56 75.5297 1001.1 77.3287Z" fill="#40403F"/>
<path d="M1000.26 102.403H1022.75V96.9224H1000.26V102.403Z" fill="white"/>
<path d="M987.162 102.403H994.514V96.9224H987.162V102.403Z" fill="white"/>
<path d="M1146.23 54.9079C1144.89 54.9079 1143.8 53.8008 1143.8 52.4723C1143.8 51.1437 1144.89 50.0366 1146.23 50.0366C1147.56 50.0366 1148.65 51.1437 1148.65 52.4723C1148.65 53.8008 1147.56 54.9079 1146.23 54.9079ZM1146.23 50.8393C1145.35 50.8393 1144.65 51.5589 1144.65 52.4446C1144.65 53.3303 1145.35 54.0499 1146.23 54.0499C1147.1 54.0499 1147.81 53.3303 1147.81 52.4446C1147.81 51.5589 1147.1 50.8393 1146.23 50.8393Z" fill="white"/>
<path d="M1149.14 46.3276C1147.32 46.3276 1145.82 44.8053 1145.82 42.9509C1145.82 41.0965 1147.32 39.5742 1149.14 39.5742C1150.96 39.5742 1152.46 41.0965 1152.46 42.9509C1152.46 44.8053 1150.96 46.3276 1149.14 46.3276ZM1149.14 40.4322C1147.75 40.4322 1146.64 41.567 1146.64 42.9786C1146.64 44.3901 1147.75 45.5249 1149.14 45.5249C1150.53 45.5249 1151.65 44.3901 1151.65 42.9786C1151.65 41.567 1150.53 40.4322 1149.14 40.4322Z" fill="white"/>
<path d="M1145.79 35.8933C1145.79 35.8933 1145.68 35.8933 1145.63 35.8656C1145.49 35.8102 1145.41 35.6719 1145.38 35.5335L1144.4 26.4829C1144.4 26.3445 1144.46 26.1784 1144.57 26.0954C1144.68 26.0124 1144.84 25.9847 1144.97 26.04L1153.22 29.6935C1153.22 29.6935 1153.44 29.8872 1153.47 30.0256C1153.47 30.164 1153.42 30.3301 1153.31 30.4131L1146.06 35.8102C1146.06 35.8102 1145.9 35.8933 1145.82 35.8933M1145.3 27.0918L1146.15 34.7031L1152.24 30.164L1145.3 27.0918Z" fill="white"/>
</g>
<defs>
<linearGradient id="paint0_linear_7572_3617" x1="130.285" y1="41.5507" x2="1085.77" y2="305.901" gradientUnits="userSpaceOnUse">
<stop stop-color="#D24E04"/>
<stop offset="1" stop-color="#F2911C"/>
</linearGradient>
<clipPath id="clip0_7572_3617">
<path d="M0 10C0 4.47716 4.47715 0 10 0H1176C1181.52 0 1186 4.47715 1186 10V112C1186 117.523 1181.52 122 1176 122H9.99996C4.47712 122 0 117.523 0 112V10Z" fill="white"/>
</clipPath>
</defs>
</svg>
