<svg width="81" height="22" viewBox="0 0 81 22" fill="none" xmlns="http://www.w3.org/2000/svg">
<mask id="path-1-outside-1_7457_31023" maskUnits="userSpaceOnUse" x="0" y="0" width="81" height="22" fill="black">
<rect fill="white" width="81" height="22"/>
<path d="M1 11C1 5.47715 5.47715 1 11 1H70C75.5229 1 80 5.47715 80 11C80 16.5228 75.5229 21 70 21H11C5.47715 21 1 16.5228 1 11Z"/>
</mask>
<path d="M1 11C1 5.47715 5.47715 1 11 1H70C75.5229 1 80 5.47715 80 11C80 16.5228 75.5229 21 70 21H11C5.47715 21 1 16.5228 1 11Z" fill="#FFE2E2"/>
<path d="M11 1V2H70V1V0H11V1ZM70 21V20H11V21V22H70V21ZM11 21V20C6.02944 20 2 15.9706 2 11H1H0C0 17.0751 4.92487 22 11 22V21ZM80 11H79C79 15.9706 74.9706 20 70 20V21V22C76.0751 22 81 17.0751 81 11H80ZM70 1V2C74.9706 2 79 6.02944 79 11H80H81C81 4.92487 76.0751 0 70 0V1ZM11 1V0C4.92487 0 0 4.92487 0 11H1H2C2 6.02944 6.02944 2 11 2V1Z" fill="#FFA2A2" mask="url(#path-1-outside-1_7457_31023)"/>
<path d="M9 11C9 9.34315 10.3431 8 12 8C13.6569 8 15 9.34315 15 11C15 12.6569 13.6569 14 12 14C10.3431 14 9 12.6569 9 11Z" fill="#C10007"/>
<path d="M25.3382 15L24.5822 12.732H21.4502L20.7182 15H19.3382L22.1942 6.624H23.8982L26.7542 15H25.3382ZM23.0462 7.872H22.9862L21.7742 11.568H24.2462L23.0462 7.872ZM29.1246 6.624V11.784C29.1246 12.496 29.2606 13.032 29.5326 13.392C29.8046 13.752 30.2686 13.932 30.9246 13.932C31.5806 13.932 32.0446 13.752 32.3166 13.392C32.5886 13.032 32.7246 12.496 32.7246 11.784V6.624H34.0566V11.568C34.0566 12.184 34.0006 12.716 33.8886 13.164C33.7766 13.612 33.5966 13.984 33.3486 14.28C33.1006 14.568 32.7766 14.784 32.3766 14.928C31.9846 15.072 31.5006 15.144 30.9246 15.144C30.3486 15.144 29.8606 15.072 29.4606 14.928C29.0686 14.784 28.7486 14.568 28.5006 14.28C28.2526 13.984 28.0726 13.612 27.9606 13.164C27.8486 12.716 27.7926 12.184 27.7926 11.568V6.624H29.1246ZM38.5752 15.144C37.8712 15.144 37.2712 15.016 36.7752 14.76C36.2872 14.504 35.8672 14.16 35.5152 13.728L36.4512 12.852C36.7472 13.212 37.0712 13.484 37.4232 13.668C37.7832 13.852 38.1912 13.944 38.6472 13.944C39.1832 13.944 39.5872 13.824 39.8592 13.584C40.1312 13.344 40.2672 13.02 40.2672 12.612C40.2672 12.284 40.1712 12.024 39.9792 11.832C39.7872 11.64 39.4472 11.496 38.9592 11.4L38.2152 11.268C37.3992 11.116 36.7872 10.848 36.3792 10.464C35.9712 10.08 35.7672 9.552 35.7672 8.88C35.7672 8.512 35.8352 8.18 35.9712 7.884C36.1152 7.58 36.3112 7.328 36.5592 7.128C36.8152 6.92 37.1232 6.76 37.4832 6.648C37.8432 6.536 38.2472 6.48 38.6952 6.48C39.3272 6.48 39.8752 6.592 40.3392 6.816C40.8032 7.032 41.1992 7.348 41.5272 7.764L40.5792 8.604C40.3632 8.324 40.0992 8.1 39.7872 7.932C39.4752 7.764 39.0872 7.68 38.6232 7.68C38.1432 7.68 37.7712 7.776 37.5072 7.968C37.2432 8.16 37.1112 8.44 37.1112 8.808C37.1112 9.16 37.2192 9.424 37.4352 9.6C37.6512 9.768 37.9872 9.896 38.4432 9.984L39.1872 10.14C40.0272 10.3 40.6392 10.572 41.0232 10.956C41.4152 11.34 41.6112 11.868 41.6112 12.54C41.6112 12.932 41.5432 13.288 41.4072 13.608C41.2712 13.928 41.0712 14.204 40.8072 14.436C40.5512 14.66 40.2352 14.836 39.8592 14.964C39.4832 15.084 39.0552 15.144 38.5752 15.144ZM43.239 15V6.624H48.603V7.824H44.595V10.152H48.231V11.352H44.595V13.8H48.603V15H43.239ZM52.6083 10.368L51.6843 8.592H51.6483V15H50.3523V6.624H51.8643L54.6003 11.256L55.5243 13.032H55.5603V6.624H56.8563V15H55.3443L52.6083 10.368ZM62.0267 7.824V15H60.6707V7.824H58.1747V6.624H64.5227V7.824H62.0267ZM65.8445 15V6.624H71.2085V7.824H67.2005V10.152H70.8365V11.352H67.2005V13.8H71.2085V15H65.8445Z" fill="#C10007"/>
</svg>
