<svg width="87" height="22" viewBox="0 0 87 22" fill="none" xmlns="http://www.w3.org/2000/svg">
<mask id="path-1-outside-1_7457_31045" maskUnits="userSpaceOnUse" x="0" y="0" width="87" height="22" fill="black">
<rect fill="white" width="87" height="22"/>
<path d="M1 11C1 5.47715 5.47715 1 11 1H76C81.5229 1 86 5.47715 86 11C86 16.5228 81.5229 21 76 21H11C5.47715 21 1 16.5228 1 11Z"/>
</mask>
<path d="M1 11C1 5.47715 5.47715 1 11 1H76C81.5229 1 86 5.47715 86 11C86 16.5228 81.5229 21 76 21H11C5.47715 21 1 16.5228 1 11Z" fill="#FEF9C2"/>
<path d="M11 1V2H76V1V0H11V1ZM76 21V20H11V21V22H76V21ZM11 21V20C6.02944 20 2 15.9706 2 11H1H0C0 17.0751 4.92487 22 11 22V21ZM86 11H85C85 15.9706 80.9706 20 76 20V21V22C82.0751 22 87 17.0751 87 11H86ZM76 1V2C80.9706 2 85 6.02944 85 11H86H87C87 4.92487 82.0751 0 76 0V1ZM11 1V0C4.92487 0 0 4.92487 0 11H1H2C2 6.02944 6.02944 2 11 2V1Z" fill="#FBE46A" mask="url(#path-1-outside-1_7457_31045)"/>
<path d="M9 11C9 9.34315 10.3431 8 12 8C13.6569 8 15 9.34315 15 11C15 12.6569 13.6569 14 12 14C10.3431 14 9 12.6569 9 11Z" fill="#894B00"/>
<path d="M20.2117 15V6.624H25.5757V7.824H21.5677V10.152H25.2037V11.352H21.5677V13.8H25.5757V15H20.2117ZM29.581 10.368L28.657 8.592H28.621V15H27.325V6.624H28.837L31.573 11.256L32.497 13.032H32.533V6.624H33.829V15H32.317L29.581 10.368ZM41.8353 7.824V15H40.4793V7.824H37.9833V6.624H44.3313V7.824H41.8353ZM46.9371 6.624V11.784C46.9371 12.496 47.0731 13.032 47.3451 13.392C47.6171 13.752 48.0811 13.932 48.7371 13.932C49.3931 13.932 49.8571 13.752 50.1291 13.392C50.4011 13.032 50.5371 12.496 50.5371 11.784V6.624H51.8691V11.568C51.8691 12.184 51.8131 12.716 51.7011 13.164C51.5891 13.612 51.4091 13.984 51.1611 14.28C50.9131 14.568 50.5891 14.784 50.1891 14.928C49.7971 15.072 49.3131 15.144 48.7371 15.144C48.1611 15.144 47.6731 15.072 47.2731 14.928C46.8811 14.784 46.5611 14.568 46.3131 14.28C46.0651 13.984 45.8851 13.612 45.7731 13.164C45.6611 12.716 45.6051 12.184 45.6051 11.568V6.624H46.9371ZM55.2357 15H53.8797V6.624H57.4917C58.2437 6.624 58.8357 6.852 59.2677 7.308C59.6997 7.756 59.9157 8.368 59.9157 9.144C59.9157 9.744 59.7757 10.244 59.4957 10.644C59.2237 11.036 58.8197 11.312 58.2837 11.472L60.0957 15H58.5837L56.9037 11.616H55.2357V15ZM57.3957 10.476C57.7397 10.476 58.0077 10.388 58.1997 10.212C58.3917 10.028 58.4877 9.768 58.4877 9.432V8.856C58.4877 8.52 58.3917 8.264 58.1997 8.088C58.0077 7.904 57.7397 7.812 57.3957 7.812H55.2357V10.476H57.3957ZM63.9989 10.368L63.0749 8.592H63.0389V15H61.7429V6.624H63.2549L65.9909 11.256L66.9149 13.032H66.9509V6.624H68.2469V15H66.7349L63.9989 10.368ZM73.5493 15.144C73.0053 15.144 72.5093 15.052 72.0613 14.868C71.6213 14.676 71.2413 14.4 70.9213 14.04C70.6093 13.672 70.3653 13.22 70.1893 12.684C70.0213 12.14 69.9373 11.516 69.9373 10.812C69.9373 10.108 70.0213 9.488 70.1893 8.952C70.3653 8.408 70.6093 7.956 70.9213 7.596C71.2413 7.228 71.6213 6.952 72.0613 6.768C72.5093 6.576 73.0053 6.48 73.5493 6.48C74.0933 6.48 74.5853 6.576 75.0253 6.768C75.4733 6.952 75.8533 7.228 76.1653 7.596C76.4853 7.956 76.7293 8.408 76.8973 8.952C77.0733 9.488 77.1613 10.108 77.1613 10.812C77.1613 11.516 77.0733 12.14 76.8973 12.684C76.7293 13.22 76.4853 13.672 76.1653 14.04C75.8533 14.4 75.4733 14.676 75.0253 14.868C74.5853 15.052 74.0933 15.144 73.5493 15.144ZM73.5493 13.932C73.8693 13.932 74.1613 13.876 74.4253 13.764C74.6973 13.652 74.9253 13.492 75.1093 13.284C75.3013 13.068 75.4493 12.808 75.5533 12.504C75.6573 12.2 75.7093 11.856 75.7093 11.472V10.152C75.7093 9.768 75.6573 9.424 75.5533 9.12C75.4493 8.816 75.3013 8.56 75.1093 8.352C74.9253 8.136 74.6973 7.972 74.4253 7.86C74.1613 7.748 73.8693 7.692 73.5493 7.692C73.2213 7.692 72.9253 7.748 72.6613 7.86C72.3973 7.972 72.1693 8.136 71.9773 8.352C71.7933 8.56 71.6493 8.816 71.5453 9.12C71.4413 9.424 71.3893 9.768 71.3893 10.152V11.472C71.3893 11.856 71.4413 12.2 71.5453 12.504C71.6493 12.808 71.7933 13.068 71.9773 13.284C72.1693 13.492 72.3973 13.652 72.6613 13.764C72.9253 13.876 73.2213 13.932 73.5493 13.932Z" fill="#894B00"/>
</svg>
