<svg width="106" height="22" viewBox="0 0 106 22" fill="none" xmlns="http://www.w3.org/2000/svg">
<mask id="path-1-outside-1_7457_31021" maskUnits="userSpaceOnUse" x="0" y="0" width="106" height="22" fill="black">
<rect fill="white" width="106" height="22"/>
<path d="M1 11C1 5.47715 5.47715 1 11 1H95C100.523 1 105 5.47715 105 11C105 16.5228 100.523 21 95 21H11C5.47715 21 1 16.5228 1 11Z"/>
</mask>
<path d="M1 11C1 5.47715 5.47715 1 11 1H95C100.523 1 105 5.47715 105 11C105 16.5228 100.523 21 95 21H11C5.47715 21 1 16.5228 1 11Z" fill="#E3F6E9"/>
<path d="M11 1V2H95V1V0H11V1ZM95 21V20H11V21V22H95V21ZM11 21V20C6.02944 20 2 15.9706 2 11H1H0C0 17.0751 4.92487 22 11 22V21ZM105 11H104C104 15.9706 99.9706 20 95 20V21V22C101.075 22 106 17.0751 106 11H105ZM95 1V2C99.9706 2 104 6.02944 104 11H105H106C106 4.92487 101.075 0 95 0V1ZM11 1V0C4.92487 0 0 4.92487 0 11H1H2C2 6.02944 6.02944 2 11 2V1Z" fill="#8AE2AC" mask="url(#path-1-outside-1_7457_31021)"/>
<path d="M9 11C9 9.34315 10.3431 8 12 8C13.6569 8 15 9.34315 15 11C15 12.6569 13.6569 14 12 14C10.3431 14 9 12.6569 9 11Z" fill="#008236"/>
<path d="M23.4865 15.144C22.3905 15.144 21.5305 14.776 20.9065 14.04C20.2825 13.296 19.9705 12.22 19.9705 10.812C19.9705 10.108 20.0505 9.488 20.2105 8.952C20.3705 8.416 20.6025 7.964 20.9065 7.596C21.2105 7.228 21.5785 6.952 22.0105 6.768C22.4505 6.576 22.9425 6.48 23.4865 6.48C24.2145 6.48 24.8225 6.64 25.3105 6.96C25.8065 7.28 26.1945 7.752 26.4745 8.376L25.3345 9C25.1905 8.6 24.9665 8.284 24.6625 8.052C24.3665 7.812 23.9745 7.692 23.4865 7.692C22.8385 7.692 22.3305 7.912 21.9625 8.352C21.5945 8.792 21.4105 9.4 21.4105 10.176V11.448C21.4105 12.224 21.5945 12.832 21.9625 13.272C22.3305 13.712 22.8385 13.932 23.4865 13.932C23.9905 13.932 24.3985 13.804 24.7105 13.548C25.0305 13.284 25.2665 12.948 25.4185 12.54L26.5105 13.2C26.2305 13.808 25.8385 14.284 25.3345 14.628C24.8305 14.972 24.2145 15.144 23.4865 15.144ZM31.0357 15.144C30.4917 15.144 29.9957 15.052 29.5477 14.868C29.1077 14.676 28.7277 14.4 28.4077 14.04C28.0957 13.672 27.8517 13.22 27.6757 12.684C27.5077 12.14 27.4237 11.516 27.4237 10.812C27.4237 10.108 27.5077 9.488 27.6757 8.952C27.8517 8.408 28.0957 7.956 28.4077 7.596C28.7277 7.228 29.1077 6.952 29.5477 6.768C29.9957 6.576 30.4917 6.48 31.0357 6.48C31.5797 6.48 32.0717 6.576 32.5117 6.768C32.9597 6.952 33.3397 7.228 33.6517 7.596C33.9717 7.956 34.2157 8.408 34.3837 8.952C34.5597 9.488 34.6477 10.108 34.6477 10.812C34.6477 11.516 34.5597 12.14 34.3837 12.684C34.2157 13.22 33.9717 13.672 33.6517 14.04C33.3397 14.4 32.9597 14.676 32.5117 14.868C32.0717 15.052 31.5797 15.144 31.0357 15.144ZM31.0357 13.932C31.3557 13.932 31.6477 13.876 31.9117 13.764C32.1837 13.652 32.4117 13.492 32.5957 13.284C32.7877 13.068 32.9357 12.808 33.0397 12.504C33.1437 12.2 33.1957 11.856 33.1957 11.472V10.152C33.1957 9.768 33.1437 9.424 33.0397 9.12C32.9357 8.816 32.7877 8.56 32.5957 8.352C32.4117 8.136 32.1837 7.972 31.9117 7.86C31.6477 7.748 31.3557 7.692 31.0357 7.692C30.7077 7.692 30.4117 7.748 30.1477 7.86C29.8837 7.972 29.6557 8.136 29.4637 8.352C29.2797 8.56 29.1357 8.816 29.0317 9.12C28.9277 9.424 28.8757 9.768 28.8757 10.152V11.472C28.8757 11.856 28.9277 12.2 29.0317 12.504C29.1357 12.808 29.2797 13.068 29.4637 13.284C29.6557 13.492 29.8837 13.652 30.1477 13.764C30.4117 13.876 30.7077 13.932 31.0357 13.932ZM42.7466 8.592H42.6866L42.0266 9.948L40.1906 13.296L38.3546 9.948L37.6946 8.592H37.6346V15H36.3386V6.624H37.9466L40.1906 10.884H40.2626L42.5066 6.624H44.0426V15H42.7466V8.592ZM46.1121 15V6.624H49.7121C50.4881 6.624 51.0881 6.852 51.5121 7.308C51.9361 7.764 52.1481 8.376 52.1481 9.144C52.1481 9.912 51.9361 10.524 51.5121 10.98C51.0881 11.436 50.4881 11.664 49.7121 11.664H47.4681V15H46.1121ZM47.4681 10.476H49.6281C49.9721 10.476 50.2401 10.388 50.4321 10.212C50.6241 10.028 50.7201 9.768 50.7201 9.432V8.856C50.7201 8.52 50.6241 8.264 50.4321 8.088C50.2401 7.904 49.9721 7.812 49.6281 7.812H47.4681V10.476ZM53.6355 15V6.624H54.9915V13.8H58.3995V15H53.6355ZM59.7879 15V6.624H65.1519V7.824H61.1439V10.152H64.7799V11.352H61.1439V13.8H65.1519V15H59.7879ZM70.0091 7.824V15H68.6531V7.824H66.1571V6.624H72.5051V7.824H70.0091ZM78.2738 15L77.5178 12.732H74.3858L73.6538 15H72.2738L75.1298 6.624H76.8338L79.6898 15H78.2738ZM75.9818 7.872H75.9218L74.7098 11.568H77.1818L75.9818 7.872ZM80.9871 6.624H83.9511C84.4871 6.624 84.9711 6.712 85.4031 6.888C85.8431 7.064 86.2151 7.328 86.5191 7.68C86.8311 8.024 87.0711 8.46 87.2391 8.988C87.4071 9.508 87.4911 10.116 87.4911 10.812C87.4911 11.508 87.4071 12.12 87.2391 12.648C87.0711 13.168 86.8311 13.604 86.5191 13.956C86.2151 14.3 85.8431 14.56 85.4031 14.736C84.9711 14.912 84.4871 15 83.9511 15H80.9871V6.624ZM83.9511 13.8C84.5751 13.8 85.0791 13.604 85.4631 13.212C85.8471 12.82 86.0391 12.244 86.0391 11.484V10.14C86.0391 9.38 85.8471 8.804 85.4631 8.412C85.0791 8.02 84.5751 7.824 83.9511 7.824H82.3431V13.8H83.9511ZM92.4185 15.144C91.8745 15.144 91.3785 15.052 90.9305 14.868C90.4905 14.676 90.1105 14.4 89.7905 14.04C89.4785 13.672 89.2345 13.22 89.0585 12.684C88.8905 12.14 88.8065 11.516 88.8065 10.812C88.8065 10.108 88.8905 9.488 89.0585 8.952C89.2345 8.408 89.4785 7.956 89.7905 7.596C90.1105 7.228 90.4905 6.952 90.9305 6.768C91.3785 6.576 91.8745 6.48 92.4185 6.48C92.9625 6.48 93.4545 6.576 93.8945 6.768C94.3425 6.952 94.7225 7.228 95.0345 7.596C95.3545 7.956 95.5985 8.408 95.7665 8.952C95.9425 9.488 96.0305 10.108 96.0305 10.812C96.0305 11.516 95.9425 12.14 95.7665 12.684C95.5985 13.22 95.3545 13.672 95.0345 14.04C94.7225 14.4 94.3425 14.676 93.8945 14.868C93.4545 15.052 92.9625 15.144 92.4185 15.144ZM92.4185 13.932C92.7385 13.932 93.0305 13.876 93.2945 13.764C93.5665 13.652 93.7945 13.492 93.9785 13.284C94.1705 13.068 94.3185 12.808 94.4225 12.504C94.5265 12.2 94.5785 11.856 94.5785 11.472V10.152C94.5785 9.768 94.5265 9.424 94.4225 9.12C94.3185 8.816 94.1705 8.56 93.9785 8.352C93.7945 8.136 93.5665 7.972 93.2945 7.86C93.0305 7.748 92.7385 7.692 92.4185 7.692C92.0905 7.692 91.7945 7.748 91.5305 7.86C91.2665 7.972 91.0385 8.136 90.8465 8.352C90.6625 8.56 90.5185 8.816 90.4145 9.12C90.3105 9.424 90.2585 9.768 90.2585 10.152V11.472C90.2585 11.856 90.3105 12.2 90.4145 12.504C90.5185 12.808 90.6625 13.068 90.8465 13.284C91.0385 13.492 91.2665 13.652 91.5305 13.764C91.7945 13.876 92.0905 13.932 92.4185 13.932Z" fill="#008236"/>
</svg>
