<svg width="64" height="22" viewBox="0 0 64 22" fill="none" xmlns="http://www.w3.org/2000/svg">
<mask id="path-1-outside-1_7436_2632" maskUnits="userSpaceOnUse" x="0" y="0" width="64" height="22" fill="black">
<rect fill="white" width="64" height="22"/>
<path d="M1 11C1 5.47715 5.47715 1 11 1H53C58.5228 1 63 5.47715 63 11C63 16.5228 58.5228 21 53 21H11C5.47715 21 1 16.5228 1 11Z"/>
</mask>
<path d="M1 11C1 5.47715 5.47715 1 11 1H53C58.5228 1 63 5.47715 63 11C63 16.5228 58.5228 21 53 21H11C5.47715 21 1 16.5228 1 11Z" fill="#F0F0F0"/>
<path d="M11 1V2H53V1V0H11V1ZM53 21V20H11V21V22H53V21ZM11 21V20C6.02944 20 2 15.9706 2 11H1H0C0 17.0751 4.92487 22 11 22V21ZM63 11H62C62 15.9706 57.9706 20 53 20V21V22C59.0751 22 64 17.0751 64 11H63ZM53 1V2C57.9706 2 62 6.02944 62 11H63H64C64 4.92487 59.0751 0 53 0V1ZM11 1V0C4.92487 0 0 4.92487 0 11H1H2C2 6.02944 6.02944 2 11 2V1Z" fill="#D9D9D9" mask="url(#path-1-outside-1_7436_2632)"/>
<mask id="mask0_7436_2632" style="mask-type:alpha" maskUnits="userSpaceOnUse" x="9" y="5" width="12" height="12">
<rect x="9" y="5" width="12" height="12" fill="#D9D9D9"/>
</mask>
<g mask="url(#mask0_7436_2632)">
<path d="M13 11.5H17C17.1417 11.5 17.2604 11.4521 17.3563 11.3563C17.4521 11.2604 17.5 11.1417 17.5 11C17.5 10.8583 17.4521 10.7396 17.3563 10.6438C17.2604 10.5479 17.1417 10.5 17 10.5H13C12.8583 10.5 12.7396 10.5479 12.6437 10.6438C12.5479 10.7396 12.5 10.8583 12.5 11C12.5 11.1417 12.5479 11.2604 12.6437 11.3563C12.7396 11.4521 12.8583 11.5 13 11.5ZM15 16C14.3083 16 13.6583 15.8687 13.05 15.6062C12.4417 15.3438 11.9125 14.9875 11.4625 14.5375C11.0125 14.0875 10.6562 13.5583 10.3938 12.95C10.1312 12.3417 10 11.6917 10 11C10 10.3083 10.1312 9.65833 10.3938 9.05C10.6562 8.44167 11.0125 7.9125 11.4625 7.4625C11.9125 7.0125 12.4417 6.65625 13.05 6.39375C13.6583 6.13125 14.3083 6 15 6C15.6917 6 16.3417 6.13125 16.95 6.39375C17.5583 6.65625 18.0875 7.0125 18.5375 7.4625C18.9875 7.9125 19.3438 8.44167 19.6062 9.05C19.8687 9.65833 20 10.3083 20 11C20 11.6917 19.8687 12.3417 19.6062 12.95C19.3438 13.5583 18.9875 14.0875 18.5375 14.5375C18.0875 14.9875 17.5583 15.3438 16.95 15.6062C16.3417 15.8687 15.6917 16 15 16Z" fill="#4B4B4B"/>
</g>
<path d="M26.1023 6.624H29.8103C30.5063 6.624 31.0503 6.82 31.4423 7.212C31.8423 7.604 32.0423 8.128 32.0423 8.784C32.0423 9.096 31.9983 9.364 31.9103 9.588C31.8223 9.804 31.7103 9.984 31.5743 10.128C31.4383 10.264 31.2823 10.368 31.1063 10.44C30.9303 10.504 30.7583 10.544 30.5903 10.56V10.632C30.7583 10.64 30.9423 10.68 31.1423 10.752C31.3503 10.824 31.5423 10.94 31.7183 11.1C31.8943 11.252 32.0423 11.452 32.1623 11.7C32.2823 11.94 32.3423 12.236 32.3423 12.588C32.3423 12.924 32.2863 13.24 32.1743 13.536C32.0703 13.832 31.9223 14.088 31.7303 14.304C31.5383 14.52 31.3103 14.692 31.0463 14.82C30.7823 14.94 30.4943 15 30.1823 15H26.1023V6.624ZM27.4583 13.836H29.7863C30.1383 13.836 30.4143 13.744 30.6143 13.56C30.8143 13.376 30.9143 13.112 30.9143 12.768V12.36C30.9143 12.016 30.8143 11.752 30.6143 11.568C30.4143 11.384 30.1383 11.292 29.7863 11.292H27.4583V13.836ZM27.4583 10.164H29.5583C29.8943 10.164 30.1543 10.08 30.3383 9.912C30.5223 9.736 30.6143 9.488 30.6143 9.168V8.784C30.6143 8.464 30.5223 8.22 30.3383 8.052C30.1543 7.876 29.8943 7.788 29.5583 7.788H27.4583V10.164ZM39.1038 15L38.3478 12.732H35.2158L34.4838 15H33.1038L35.9598 6.624H37.6638L40.5198 15H39.1038ZM36.8118 7.872H36.7518L35.5398 11.568H38.0118L36.8118 7.872ZM46.138 6.624V12.72C46.138 13.088 46.078 13.42 45.958 13.716C45.838 14.012 45.666 14.268 45.442 14.484C45.226 14.692 44.958 14.856 44.638 14.976C44.326 15.088 43.978 15.144 43.594 15.144C42.866 15.144 42.29 14.952 41.866 14.568C41.45 14.176 41.186 13.668 41.074 13.044L42.322 12.768C42.394 13.128 42.53 13.412 42.73 13.62C42.938 13.828 43.226 13.932 43.594 13.932C43.954 13.932 44.242 13.82 44.458 13.596C44.674 13.372 44.782 13.032 44.782 12.576V7.752H42.046V6.624H46.138ZM53.2484 15L52.4924 12.732H49.3604L48.6284 15H47.2484L50.1044 6.624H51.8084L54.6644 15H53.2484ZM50.9564 7.872H50.8964L49.6844 11.568H52.1564L50.9564 7.872Z" fill="#4B4B4B"/>
</svg>
