<svg width="77" height="22" viewBox="0 0 77 22" fill="none" xmlns="http://www.w3.org/2000/svg">
<mask id="path-1-outside-1_7436_2628" maskUnits="userSpaceOnUse" x="0" y="0" width="77" height="22" fill="black">
<rect fill="white" width="77" height="22"/>
<path d="M1 11C1 5.47715 5.47715 1 11 1H66C71.5229 1 76 5.47715 76 11C76 16.5228 71.5229 21 66 21H11C5.47715 21 1 16.5228 1 11Z"/>
</mask>
<path d="M1 11C1 5.47715 5.47715 1 11 1H66C71.5229 1 76 5.47715 76 11C76 16.5228 71.5229 21 66 21H11C5.47715 21 1 16.5228 1 11Z" fill="#E3F6E9"/>
<path d="M11 1V2H66V1V0H11V1ZM66 21V20H11V21V22H66V21ZM11 21V20C6.02944 20 2 15.9706 2 11H1H0C0 17.0751 4.92487 22 11 22V21ZM76 11H75C75 15.9706 70.9706 20 66 20V21V22C72.0751 22 77 17.0751 77 11H76ZM66 1V2C70.9706 2 75 6.02944 75 11H76H77C77 4.92487 72.0751 0 66 0V1ZM11 1V0C4.92487 0 0 4.92487 0 11H1H2C2 6.02944 6.02944 2 11 2V1Z" fill="#8AE2AC" mask="url(#path-1-outside-1_7436_2628)"/>
<mask id="mask0_7436_2628" style="mask-type:alpha" maskUnits="userSpaceOnUse" x="9" y="5" width="12" height="12">
<rect x="9" y="5" width="12" height="12" fill="#D9D9D9"/>
</mask>
<g mask="url(#mask0_7436_2628)">
<path d="M14.3 11.9L13.225 10.825C13.1333 10.7333 13.0167 10.6875 12.875 10.6875C12.7333 10.6875 12.6167 10.7333 12.525 10.825C12.4333 10.9167 12.3875 11.0333 12.3875 11.175C12.3875 11.3167 12.4333 11.4333 12.525 11.525L13.95 12.95C14.05 13.05 14.1667 13.1 14.3 13.1C14.4333 13.1 14.55 13.05 14.65 12.95L17.475 10.125C17.5667 10.0333 17.6125 9.91667 17.6125 9.775C17.6125 9.63333 17.5667 9.51667 17.475 9.425C17.3833 9.33333 17.2667 9.2875 17.125 9.2875C16.9833 9.2875 16.8667 9.33333 16.775 9.425L14.3 11.9ZM15 16C14.3083 16 13.6583 15.8687 13.05 15.6062C12.4417 15.3438 11.9125 14.9875 11.4625 14.5375C11.0125 14.0875 10.6562 13.5583 10.3938 12.95C10.1312 12.3417 10 11.6917 10 11C10 10.3083 10.1312 9.65833 10.3938 9.05C10.6562 8.44167 11.0125 7.9125 11.4625 7.4625C11.9125 7.0125 12.4417 6.65625 13.05 6.39375C13.6583 6.13125 14.3083 6 15 6C15.6917 6 16.3417 6.13125 16.95 6.39375C17.5583 6.65625 18.0875 7.0125 18.5375 7.4625C18.9875 7.9125 19.3438 8.44167 19.6062 9.05C19.8687 9.65833 20 10.3083 20 11C20 11.6917 19.8687 12.3417 19.6062 12.95C19.3438 13.5583 18.9875 14.0875 18.5375 14.5375C18.0875 14.9875 17.5583 15.3438 16.95 15.6062C16.3417 15.8687 15.6917 16 15 16Z" fill="#008236"/>
</g>
<path d="M31.2718 15L30.5158 12.732H27.3838L26.6518 15H25.2718L28.1278 6.624H29.8318L32.6878 15H31.2718ZM28.9798 7.872H28.9198L27.7078 11.568H30.1798L28.9798 7.872ZM36.8713 15.144C35.7753 15.144 34.9153 14.776 34.2913 14.04C33.6673 13.296 33.3553 12.22 33.3553 10.812C33.3553 10.108 33.4353 9.488 33.5953 8.952C33.7553 8.416 33.9873 7.964 34.2913 7.596C34.5953 7.228 34.9633 6.952 35.3953 6.768C35.8353 6.576 36.3273 6.48 36.8713 6.48C37.5993 6.48 38.2073 6.64 38.6953 6.96C39.1913 7.28 39.5793 7.752 39.8593 8.376L38.7193 9C38.5753 8.6 38.3513 8.284 38.0473 8.052C37.7513 7.812 37.3593 7.692 36.8713 7.692C36.2233 7.692 35.7153 7.912 35.3473 8.352C34.9793 8.792 34.7953 9.4 34.7953 10.176V11.448C34.7953 12.224 34.9793 12.832 35.3473 13.272C35.7153 13.712 36.2233 13.932 36.8713 13.932C37.3753 13.932 37.7833 13.804 38.0953 13.548C38.4153 13.284 38.6513 12.948 38.8033 12.54L39.8953 13.2C39.6153 13.808 39.2233 14.284 38.7193 14.628C38.2153 14.972 37.5993 15.144 36.8713 15.144ZM44.4408 7.824V15H43.0848V7.824H40.5888V6.624H46.9368V7.824H44.4408ZM47.8283 15V13.896H48.9683V7.728H47.8283V6.624H51.4763V7.728H50.3242V13.896H51.4763V15H47.8283ZM55.1124 15L52.3644 6.624H53.7684L55.1004 10.764L55.9044 13.68H55.9524L56.7684 10.764L58.1004 6.624H59.4684L56.6844 15H55.1124ZM63.7212 15.144C63.1772 15.144 62.6812 15.052 62.2332 14.868C61.7932 14.676 61.4132 14.4 61.0932 14.04C60.7812 13.672 60.5372 13.22 60.3612 12.684C60.1932 12.14 60.1092 11.516 60.1092 10.812C60.1092 10.108 60.1932 9.488 60.3612 8.952C60.5372 8.408 60.7812 7.956 61.0932 7.596C61.4132 7.228 61.7932 6.952 62.2332 6.768C62.6812 6.576 63.1772 6.48 63.7212 6.48C64.2652 6.48 64.7572 6.576 65.1972 6.768C65.6452 6.952 66.0252 7.228 66.3372 7.596C66.6572 7.956 66.9012 8.408 67.0692 8.952C67.2452 9.488 67.3332 10.108 67.3332 10.812C67.3332 11.516 67.2452 12.14 67.0692 12.684C66.9012 13.22 66.6572 13.672 66.3372 14.04C66.0252 14.4 65.6452 14.676 65.1972 14.868C64.7572 15.052 64.2652 15.144 63.7212 15.144ZM63.7212 13.932C64.0412 13.932 64.3332 13.876 64.5972 13.764C64.8692 13.652 65.0972 13.492 65.2812 13.284C65.4732 13.068 65.6212 12.808 65.7252 12.504C65.8292 12.2 65.8812 11.856 65.8812 11.472V10.152C65.8812 9.768 65.8292 9.424 65.7252 9.12C65.6212 8.816 65.4732 8.56 65.2812 8.352C65.0972 8.136 64.8692 7.972 64.5972 7.86C64.3332 7.748 64.0412 7.692 63.7212 7.692C63.3932 7.692 63.0972 7.748 62.8332 7.86C62.5692 7.972 62.3412 8.136 62.1492 8.352C61.9652 8.56 61.8212 8.816 61.7172 9.12C61.6132 9.424 61.5612 9.768 61.5612 10.152V11.472C61.5612 11.856 61.6132 12.2 61.7172 12.504C61.8212 12.808 61.9652 13.068 62.1492 13.284C62.3412 13.492 62.5692 13.652 62.8332 13.764C63.0972 13.876 63.3932 13.932 63.7212 13.932Z" fill="#008236"/>
</svg>
