<svg width="91" height="22" viewBox="0 0 91 22" fill="none" xmlns="http://www.w3.org/2000/svg">
<mask id="path-1-outside-1_7760_12369" maskUnits="userSpaceOnUse" x="0" y="0" width="91" height="22" fill="black">
<rect fill="white" width="91" height="22"/>
<path d="M1 11C1 5.47715 5.47715 1 11 1H80C85.5229 1 90 5.47715 90 11C90 16.5228 85.5229 21 80 21H11C5.47715 21 1 16.5228 1 11Z"/>
</mask>
<path d="M1 11C1 5.47715 5.47715 1 11 1H80C85.5229 1 90 5.47715 90 11C90 16.5228 85.5229 21 80 21H11C5.47715 21 1 16.5228 1 11Z" fill="#FFE2E2"/>
<path d="M11 1V2H80V1V0H11V1ZM80 21V20H11V21V22H80V21ZM11 21V20C6.02944 20 2 15.9706 2 11H1H0C0 17.0751 4.92487 22 11 22V21ZM90 11H89C89 15.9706 84.9706 20 80 20V21V22C86.0751 22 91 17.0751 91 11H90ZM80 1V2C84.9706 2 89 6.02944 89 11H90H91C91 4.92487 86.0751 0 80 0V1ZM11 1V0C4.92487 0 0 4.92487 0 11H1H2C2 6.02944 6.02944 2 11 2V1Z" fill="#FFA2A2" mask="url(#path-1-outside-1_7760_12369)"/>
<mask id="mask0_7760_12369" style="mask-type:alpha" maskUnits="userSpaceOnUse" x="9" y="5" width="12" height="12">
<rect x="9" y="5" width="12" height="12" fill="#D9D9D9"/>
</mask>
<g mask="url(#mask0_7760_12369)">
<path d="M13 11.5H17C17.1417 11.5 17.2604 11.4521 17.3563 11.3563C17.4521 11.2604 17.5 11.1417 17.5 11C17.5 10.8583 17.4521 10.7396 17.3563 10.6438C17.2604 10.5479 17.1417 10.5 17 10.5H13C12.8583 10.5 12.7396 10.5479 12.6437 10.6438C12.5479 10.7396 12.5 10.8583 12.5 11C12.5 11.1417 12.5479 11.2604 12.6437 11.3563C12.7396 11.4521 12.8583 11.5 13 11.5ZM15 16C14.3083 16 13.6583 15.8687 13.05 15.6062C12.4417 15.3438 11.9125 14.9875 11.4625 14.5375C11.0125 14.0875 10.6562 13.5583 10.3938 12.95C10.1312 12.3417 10 11.6917 10 11C10 10.3083 10.1312 9.65833 10.3938 9.05C10.6562 8.44167 11.0125 7.9125 11.4625 7.4625C11.9125 7.0125 12.4417 6.65625 13.05 6.39375C13.6583 6.13125 14.3083 6 15 6C15.6917 6 16.3417 6.13125 16.95 6.39375C17.5583 6.65625 18.0875 7.0125 18.5375 7.4625C18.9875 7.9125 19.3438 8.44167 19.6062 9.05C19.8687 9.65833 20 10.3083 20 11C20 11.6917 19.8687 12.3417 19.6062 12.95C19.3438 13.5583 18.9875 14.0875 18.5375 14.5375C18.0875 14.9875 17.5583 15.3438 16.95 15.6062C16.3417 15.8687 15.6917 16 15 16Z" fill="#C10007"/>
</g>
<path d="M25.9005 15V13.896H27.0405V7.728H25.9005V6.624H29.5485V7.728H28.3965V13.896H29.5485V15H25.9005ZM33.5087 10.368L32.5847 8.592H32.5487V15H31.2527V6.624H32.7647L35.5007 11.256L36.4247 13.032H36.4607V6.624H37.7567V15H36.2447L33.5087 10.368ZM45.0511 15L44.2951 12.732H41.1631L40.4311 15H39.0511L41.9071 6.624H43.6111L46.4671 15H45.0511ZM42.7591 7.872H42.6991L41.4871 11.568H43.9591L42.7591 7.872ZM50.6506 15.144C49.5546 15.144 48.6946 14.776 48.0706 14.04C47.4466 13.296 47.1346 12.22 47.1346 10.812C47.1346 10.108 47.2146 9.488 47.3746 8.952C47.5346 8.416 47.7666 7.964 48.0706 7.596C48.3746 7.228 48.7426 6.952 49.1746 6.768C49.6146 6.576 50.1066 6.48 50.6506 6.48C51.3786 6.48 51.9866 6.64 52.4746 6.96C52.9706 7.28 53.3586 7.752 53.6386 8.376L52.4986 9C52.3546 8.6 52.1306 8.284 51.8266 8.052C51.5306 7.812 51.1386 7.692 50.6506 7.692C50.0026 7.692 49.4946 7.912 49.1266 8.352C48.7586 8.792 48.5746 9.4 48.5746 10.176V11.448C48.5746 12.224 48.7586 12.832 49.1266 13.272C49.4946 13.712 50.0026 13.932 50.6506 13.932C51.1546 13.932 51.5626 13.804 51.8746 13.548C52.1946 13.284 52.4306 12.948 52.5826 12.54L53.6746 13.2C53.3946 13.808 53.0026 14.284 52.4986 14.628C51.9946 14.972 51.3786 15.144 50.6506 15.144ZM58.2201 7.824V15H56.8641V7.824H54.3681V6.624H60.7161V7.824H58.2201ZM61.6075 15V13.896H62.7475V7.728H61.6075V6.624H65.2555V7.728H64.1035V13.896H65.2555V15H61.6075ZM68.8917 15L66.1437 6.624H67.5477L68.8797 10.764L69.6837 13.68H69.7317L70.5477 10.764L71.8797 6.624H73.2477L70.4637 15H68.8917ZM77.5005 15.144C76.9565 15.144 76.4605 15.052 76.0125 14.868C75.5725 14.676 75.1925 14.4 74.8725 14.04C74.5605 13.672 74.3165 13.22 74.1405 12.684C73.9725 12.14 73.8885 11.516 73.8885 10.812C73.8885 10.108 73.9725 9.488 74.1405 8.952C74.3165 8.408 74.5605 7.956 74.8725 7.596C75.1925 7.228 75.5725 6.952 76.0125 6.768C76.4605 6.576 76.9565 6.48 77.5005 6.48C78.0445 6.48 78.5365 6.576 78.9765 6.768C79.4245 6.952 79.8045 7.228 80.1165 7.596C80.4365 7.956 80.6805 8.408 80.8485 8.952C81.0245 9.488 81.1125 10.108 81.1125 10.812C81.1125 11.516 81.0245 12.14 80.8485 12.684C80.6805 13.22 80.4365 13.672 80.1165 14.04C79.8045 14.4 79.4245 14.676 78.9765 14.868C78.5365 15.052 78.0445 15.144 77.5005 15.144ZM77.5005 13.932C77.8205 13.932 78.1125 13.876 78.3765 13.764C78.6485 13.652 78.8765 13.492 79.0605 13.284C79.2525 13.068 79.4005 12.808 79.5045 12.504C79.6085 12.2 79.6605 11.856 79.6605 11.472V10.152C79.6605 9.768 79.6085 9.424 79.5045 9.12C79.4005 8.816 79.2525 8.56 79.0605 8.352C78.8765 8.136 78.6485 7.972 78.3765 7.86C78.1125 7.748 77.8205 7.692 77.5005 7.692C77.1725 7.692 76.8765 7.748 76.6125 7.86C76.3485 7.972 76.1205 8.136 75.9285 8.352C75.7445 8.56 75.6005 8.816 75.4965 9.12C75.3925 9.424 75.3405 9.768 75.3405 10.152V11.472C75.3405 11.856 75.3925 12.2 75.4965 12.504C75.6005 12.808 75.7445 13.068 75.9285 13.284C76.1205 13.492 76.3485 13.652 76.6125 13.764C76.8765 13.876 77.1725 13.932 77.5005 13.932Z" fill="#C10007"/>
</svg>
